<svg width="302" height="96" viewBox="0 0 302 96" fill="none" xmlns="http://www.w3.org/2000/svg">
<path d="M47.4301 1.25906C47.2005 1.01107 46.7814 0.929475 46.4346 1.06526L36.1701 5.08106V2.13733C36.1701 1.96083 36.0786 1.79232 35.9173 1.67157C35.756 1.55083 35.5388 1.48881 35.3187 1.50016C35.2101 1.5058 34.229 1.57244 33.2301 2.18894C33.06 2.29402 32.9041 2.40655 32.7598 2.52471V2.37139C32.7598 2.19543 32.6688 2.02724 32.5084 1.90657C32.3477 1.78598 32.1316 1.72325 31.9119 1.73414C31.8016 1.73939 29.3732 1.88245 28.2716 3.98753C27.0046 3.92958 24.1807 3.98651 21.8899 5.37619C20.1165 6.45203 19.0563 8.07991 18.7387 10.2147C18.3225 13.0166 18.6866 15.1795 18.9527 16.7588C19.3172 18.923 19.3927 19.8236 18.1522 20.5687C17.1661 20.1666 16.0892 19.9069 14.9866 19.8048C14.1549 17.0177 11.8176 15.4903 8.34801 15.4903C7.90618 15.4903 7.54804 15.7762 7.54804 16.1287C7.54804 16.4814 7.90627 16.7672 8.34801 16.7672C9.99721 16.7672 11.2866 17.1884 12.1804 18.0191C12.7517 18.55 13.1032 19.1921 13.3194 19.7725C12.4519 19.8179 11.5962 19.969 10.7755 20.2185C9.10422 19.0715 7.16204 18.9576 5.38351 19.9204C5.01782 20.1184 4.92245 20.5154 5.17059 20.8072C5.41864 21.0991 5.91611 21.1751 6.2818 20.9772C7.25603 20.4498 8.22183 20.4106 9.16398 20.8563C8.55171 21.1603 7.97251 21.5236 7.43883 21.9421C5.73704 23.2769 4.73033 24.9899 4.60405 26.7654C4.46001 28.7768 5.33279 30.729 7.01289 32.2033C6.23706 33.2205 4.85053 33.7226 3.73432 33.9687C4.35983 32.8428 4.76605 30.9905 3.50305 28.3054C1.83795 24.7665 2.42127 19.2388 5.66944 17.4159C6.03081 17.213 6.11775 16.8149 5.86361 16.5265C5.60958 16.238 5.11045 16.1688 4.74907 16.3714C2.8532 17.4355 1.57499 19.4584 1.15023 22.0676C0.781397 24.3329 1.10117 26.8326 2.00544 28.7544C3.84215 32.6594 1.61493 34.2904 1.52613 34.3533C1.26611 34.5284 1.17319 34.8157 1.29476 35.0694C1.41348 35.3171 1.71118 35.4798 2.04184 35.4798C2.04969 35.4798 2.05774 35.4798 2.06579 35.4796C2.2478 35.4753 6.25001 35.3527 8.20633 33.0838C9.52251 34.1342 12.8782 34.7617 13.2987 34.8512V40.4539C13.2987 40.8065 13.6569 41.0923 14.0986 41.0923H16.9499H19.5259C19.9678 41.0923 20.3259 40.8064 20.3259 40.4539V34.7601C21.0542 34.8155 21.7688 34.8389 22.4512 34.8389C24.3879 34.8389 26.0648 34.6555 27.0695 34.5143V40.4539C27.0695 40.8065 27.4277 41.0923 27.8695 41.0923H34.0199C34.4617 41.0923 34.8199 40.8064 34.8199 40.4539V31.2684C36.1974 30.2199 37.1479 28.9846 37.6471 27.5919C37.7687 27.2529 37.5229 26.8994 37.0981 26.8025C36.6736 26.7055 36.2304 26.9016 36.109 27.2406C35.66 28.4927 34.7708 29.5988 33.4655 30.5285C32.7705 31.0241 31.946 31.4758 31.015 31.8711C30.7539 31.9819 30.5905 32.1987 30.5905 32.4348V37.9297H28.6694V30.6198C28.6694 30.2672 28.3112 29.9814 27.8695 29.9814C27.4276 29.9814 27.0695 30.2673 27.0695 30.6198V33.2149C25.8034 33.4045 22.7498 33.7654 19.6394 33.41C18.7688 33.3105 17.9482 33.1604 17.2001 32.964C16.7804 32.8537 16.3282 33.0359 16.19 33.3708C16.1638 33.4344 16.1509 33.499 16.1499 33.5626V38.0123H14.8987V34.3476C14.8987 34.0424 14.6271 33.7797 14.2518 33.721C14.2426 33.7196 11.5143 33.0651 11.259 32.9903C10.2725 32.7017 9.36375 32.2526 8.59704 31.6712C6.9445 30.42 6.07153 28.6585 6.20183 26.8382C6.41691 23.8164 9.80274 21.1599 13.5963 21.0375C13.8251 21.03 14.0584 21.0305 14.2887 21.0391C15.5201 21.0861 16.7322 21.3721 17.7944 21.8666C18.1883 22.0495 18.5632 22.2611 18.9095 22.4957C20.0169 23.2446 21.6056 23.3861 22.8621 22.8484C22.9418 22.8144 23.1327 22.7205 23.1327 22.7205C26.4276 21.1068 25.7051 18.7631 24.9401 16.2818C24.6645 15.3877 24.3794 14.4632 24.2099 13.453C24.1512 13.1034 23.7489 12.8582 23.3108 12.9049C22.8729 12.9518 22.5654 13.273 22.6241 13.6224C22.8051 14.7012 23.114 15.703 23.3865 16.5869C24.2024 19.2339 24.4971 20.5541 22.2926 21.6338C22.2677 21.6462 22.1497 21.7038 22.1069 21.7227C21.4237 22.0151 20.5543 21.9344 19.9446 21.5221C19.8214 21.4386 19.6943 21.3583 19.5652 21.2797C21.1238 20.0729 20.861 18.5033 20.5387 16.5889C20.2699 14.993 19.9354 13.0068 20.3279 10.3654C20.5918 8.59179 21.4399 7.25716 22.849 6.39878C24.5397 5.36883 26.6804 5.23736 27.8452 5.25466C27.8133 5.4285 27.7872 5.60617 27.7719 5.79035C27.1924 5.91853 26.3165 6.17537 25.4432 6.67081C24.0834 7.44212 22.4625 8.95216 22.4625 11.7653C22.4625 12.118 22.8207 12.4038 23.2624 12.4038C23.7042 12.4038 24.0624 12.1179 24.0624 11.7653C24.0624 7.4902 28.4684 6.9596 28.6526 6.9394C29.0519 6.8986 29.351 6.62735 29.351 6.30614C29.351 5.76153 29.4295 5.27111 29.5843 4.84865C29.9285 3.91118 30.6078 3.44965 31.1601 3.22343V6.08736C31.1601 6.1031 31.1617 6.11853 31.163 6.13403C31.1605 6.21022 31.1601 6.28187 31.1601 6.33935C31.1601 6.69195 31.5183 6.97777 31.9601 6.97777C32.4019 6.97777 32.76 6.69188 32.76 6.33935C32.76 6.26229 32.7608 6.18767 32.765 6.10607C32.8139 4.77113 33.2787 3.80656 34.1463 3.23909C34.2896 3.14536 34.4333 3.07026 34.5701 3.0102V5.74665C33.8634 6.15024 33.3926 6.77112 33.2821 7.47422C33.151 8.30935 33.5492 9.13241 34.3478 9.67687C34.3709 9.693 34.3927 9.70788 34.4126 9.7208C34.9788 10.0925 35.6694 10.2749 36.3609 10.2749C37.0734 10.2748 37.7862 10.0803 38.3641 9.70052C38.4852 9.84139 38.6063 9.98077 38.7272 10.1194C37.6304 10.3952 36.8661 11.2422 36.944 12.1977C36.9715 12.5355 37.3234 12.7947 37.7415 12.7947C37.759 12.7947 37.7766 12.7943 37.7943 12.7933C38.2351 12.7705 38.5693 12.4666 38.5407 12.1148C38.5064 11.6953 38.906 11.3314 39.4319 11.3036C39.5642 11.2965 39.6974 11.3129 39.8225 11.3495C40.6271 12.2339 41.4203 13.0634 42.1951 13.8299C42.7877 14.4158 43.2102 15.0192 43.4602 15.6206C43.3844 15.6389 43.3096 15.6664 43.2381 15.7058C42.9556 15.8618 42.8317 16.1526 42.9298 16.4146C43.0292 16.6802 43.3476 16.8683 43.695 16.8683C43.7069 16.8683 43.7183 16.8663 43.7301 16.8659C43.7395 17.5603 43.5054 18.2324 43.022 18.8502C41.7344 20.4949 39.0897 21.2748 36.4407 20.7906C35.792 20.6719 35.1485 20.4787 34.5277 20.2163C29.2387 17.9794 27.0093 15.3491 26.6865 13.6336C26.44 12.3239 27.0764 11.0521 28.5779 9.85392C28.8903 9.60459 28.8903 9.20038 28.5779 8.95106C28.2655 8.70174 27.7589 8.70174 27.4466 8.95106C25.5663 10.4516 24.7783 12.0908 25.1042 13.8233C25.835 17.7073 31.9284 20.5622 33.7786 21.3447C34.3718 21.5955 34.9847 21.793 35.6064 21.9359C35.9817 22.6621 36.3949 23.7356 36.4443 25.0069C36.4577 25.3526 36.8131 25.6256 37.2434 25.6256C37.2519 25.6256 37.2603 25.6255 37.2688 25.6253C37.7104 25.6144 38.0572 25.3197 38.0436 24.9674C38.002 23.8966 37.7362 22.9501 37.4282 22.1934C37.6188 22.2037 37.8089 22.2094 37.9978 22.2094C40.6243 22.2093 43.0496 21.225 44.379 19.5268C45.9183 17.5606 45.5674 15.1311 43.4404 13.0281C42.1695 11.7708 40.846 10.3383 39.5014 8.76548L47.37 2.07586C47.6344 1.85066 47.6598 1.50705 47.4301 1.25906ZM32.1904 32.8119C32.549 32.6485 32.8918 32.4764 33.2197 32.2972V37.9298H32.1904V32.8119ZM32.1904 39.2067H33.2197V39.8154H32.1904V39.2067ZM28.6692 39.2067H30.5903V39.8154H28.6692V39.2067ZM17.7497 34.4168C18.0672 34.4795 18.3926 34.5356 18.7257 34.5845V38.0124H17.7497V34.4168ZM17.7497 39.2892H18.7257V39.8153H17.7497V39.2892ZM14.8984 39.2892H16.1496V39.8153H14.8984V39.2892ZM35.4259 8.73243C35.4163 8.72617 35.4076 8.7199 35.3981 8.71332C35.3953 8.71129 35.3923 8.70933 35.3895 8.70737C34.994 8.43879 34.8047 8.04718 34.8698 7.63287C34.936 7.21237 35.2466 6.86446 35.7222 6.67841L35.7712 6.65922C35.7354 7.25121 35.8109 8.02408 36.1434 8.98434C35.8864 8.95411 35.6379 8.87158 35.4259 8.73243ZM39.3565 7.02256L37.6339 8.4871C37.2021 7.13203 37.3975 6.30356 37.5221 5.97437L39.446 5.22162C39.2926 5.77171 39.2137 6.40708 39.3565 7.02256ZM40.968 5.65245C41.0818 5.17182 41.2842 4.72689 41.4433 4.44005L43.2044 3.75105L40.968 5.65245Z" fill="#747373" stroke="#747373" stroke-width="0.3"/>
<path d="M38.6667 16.3645C38.1282 16.7454 38.4793 17.48 39.198 17.48C39.5962 17.48 39.9449 17.2361 39.9918 16.9198C40.0765 16.3488 39.2091 15.9811 38.6667 16.3645Z" fill="#747373" stroke="#747373" stroke-width="0.3"/>
<path d="M35.7353 12.4941C35.6905 11.9507 35.3832 11.4537 34.8701 11.0947C34.357 10.7357 33.6994 10.5578 33.0185 10.5933C31.6129 10.6669 30.5443 11.6396 30.6367 12.7615C30.6644 13.099 31.0162 13.3582 31.4342 13.3582C31.4517 13.3582 31.4696 13.3578 31.4874 13.3568C31.9282 13.3337 32.2622 13.0297 32.2333 12.6779C32.1987 12.2586 32.5981 11.8951 33.1233 11.8676C33.3777 11.8541 33.6236 11.9208 33.8153 12.055C34.0071 12.1891 34.1218 12.3749 34.1386 12.578C34.1675 12.9298 34.5488 13.1965 34.9894 13.1732C35.4303 13.1499 35.7642 12.846 35.7353 12.4941Z" fill="#747373" stroke="#747373" stroke-width="0.3"/>
<path d="M47.4301 55.3374C47.2005 55.0894 46.7814 55.0078 46.4346 55.1436L36.1701 59.1594V56.2157C36.1701 56.0392 36.0786 55.8707 35.9173 55.7499C35.756 55.6292 35.5388 55.5672 35.3187 55.5785C35.2101 55.5842 34.229 55.6508 33.2301 56.2673C33.06 56.3724 32.9041 56.4849 32.7598 56.6031V56.4498C32.7598 56.2738 32.6688 56.1056 32.5084 55.9849C32.3477 55.8643 32.1316 55.8016 31.9119 55.8125C31.8016 55.8178 29.3732 55.9608 28.2716 58.0659C27.0046 58.008 24.1807 58.0649 21.8899 59.4546C20.1165 60.5304 19.0563 62.1583 18.7387 64.2931C18.3225 67.095 18.6866 69.2579 18.9527 70.8372C19.3172 73.0014 19.3927 73.9019 18.1522 74.647C17.1661 74.245 16.0892 73.9853 14.9866 73.8832C14.1549 71.0961 11.8176 69.5687 8.34801 69.5687C7.90618 69.5687 7.54804 69.8546 7.54804 70.2071C7.54804 70.5597 7.90627 70.8455 8.34801 70.8455C9.99721 70.8455 11.2866 71.2667 12.1804 72.0975C12.7517 72.6284 13.1032 73.2705 13.3194 73.8509C12.4519 73.8962 11.5962 74.0474 10.7755 74.2968C9.10422 73.1499 7.16204 73.036 5.38351 73.9988C5.01782 74.1968 4.92245 74.5938 5.17059 74.8856C5.41864 75.1775 5.91611 75.2535 6.2818 75.0555C7.25603 74.5282 8.22183 74.4889 9.16398 74.9346C8.55171 75.2386 7.97251 75.602 7.43883 76.0205C5.73704 77.3553 4.73033 79.0683 4.60405 80.8438C4.46001 82.8552 5.33279 84.8074 7.01289 86.2817C6.23706 87.2989 4.85053 87.801 3.73432 88.0471C4.35983 86.9211 4.76605 85.0689 3.50305 82.3838C1.83795 78.8449 2.42127 73.3172 5.66944 71.4943C6.03081 71.2914 6.11775 70.8932 5.86361 70.6048C5.60958 70.3164 5.11045 70.2471 4.74907 70.4498C2.8532 71.5139 1.57499 73.5368 1.15023 76.1459C0.781397 78.4112 1.10117 80.911 2.00544 82.8327C3.84215 86.7377 1.61493 88.3688 1.52613 88.4317C1.26611 88.6068 1.17319 88.894 1.29476 89.1477C1.41348 89.3955 1.71118 89.5582 2.04184 89.5582C2.04969 89.5582 2.05774 89.5581 2.06579 89.558C2.2478 89.5537 6.25001 89.431 8.20633 87.1622C9.52251 88.2125 12.8782 88.8401 13.2987 88.9296V94.5322C13.2987 94.8848 13.6569 95.1707 14.0986 95.1707H16.9499H19.5259C19.9678 95.1707 20.3259 94.8848 20.3259 94.5322V88.8384C21.0542 88.8939 21.7688 88.9173 22.4512 88.9173C24.3879 88.9173 26.0648 88.7339 27.0695 88.5927V94.5322C27.0695 94.8848 27.4277 95.1707 27.8695 95.1707H34.0199C34.4617 95.1707 34.8199 94.8848 34.8199 94.5322V85.3467C36.1974 84.2983 37.1479 83.063 37.6471 81.6703C37.7687 81.3313 37.5229 80.9778 37.0981 80.8808C36.6736 80.7839 36.2304 80.98 36.109 81.3189C35.66 82.571 34.7708 83.6772 33.4655 84.6069C32.7705 85.1025 31.946 85.5542 31.015 85.9494C30.7539 86.0602 30.5905 86.2771 30.5905 86.5132V92.0081H28.6694V84.6982C28.6694 84.3456 28.3112 84.0598 27.8695 84.0598C27.4276 84.0598 27.0695 84.3457 27.0695 84.6982V87.2932C25.8034 87.4829 22.7498 87.8437 19.6394 87.4884C18.7688 87.3888 17.9482 87.2388 17.2001 87.0423C16.7804 86.9321 16.3282 87.1142 16.19 87.4491C16.1638 87.5128 16.1509 87.5773 16.1499 87.641V92.0907H14.8987V88.426C14.8987 88.1208 14.6271 87.858 14.2518 87.7994C14.2426 87.798 11.5143 87.1434 11.259 87.0687C10.2725 86.78 9.36375 86.3309 8.59704 85.7495C6.9445 84.4984 6.07153 82.7369 6.20183 80.9165C6.41691 77.8947 9.80274 75.2383 13.5963 75.1159C13.8251 75.1083 14.0584 75.1089 14.2887 75.1175C15.5201 75.1645 16.7322 75.4505 17.7944 75.945C18.1883 76.1279 18.5632 76.3394 18.9095 76.5741C20.0169 77.3229 21.6056 77.4644 22.8621 76.9267C22.9418 76.8927 23.1327 76.7988 23.1327 76.7988C26.4276 75.1851 25.7051 72.8415 24.9401 70.3602C24.6645 69.4661 24.3794 68.5416 24.2099 67.5314C24.1512 67.1818 23.7489 66.9365 23.3108 66.9833C22.8729 67.0301 22.5654 67.3514 22.6241 67.7008C22.8051 68.7795 23.114 69.7814 23.3865 70.6653C24.2024 73.3122 24.4971 74.6325 22.2926 75.7122C22.2677 75.7246 22.1497 75.7822 22.1069 75.8011C21.4237 76.0935 20.5543 76.0127 19.9446 75.6005C19.8214 75.517 19.6943 75.4367 19.5652 75.3581C21.1238 74.1513 20.861 72.5816 20.5387 70.6673C20.2699 69.0714 19.9354 67.0852 20.3279 64.4438C20.5918 62.6702 21.4399 61.3355 22.849 60.4771C24.5397 59.4472 26.6804 59.3157 27.8452 59.333C27.8133 59.5069 27.7872 59.6845 27.7719 59.8687C27.1924 59.9969 26.3165 60.2537 25.4432 60.7492C24.0834 61.5205 22.4625 63.0305 22.4625 65.8437C22.4625 66.1963 22.8207 66.4821 23.2624 66.4821C23.7042 66.4821 24.0624 66.1962 24.0624 65.8437C24.0624 61.5686 28.4684 61.038 28.6526 61.0178C29.0519 60.977 29.351 60.7057 29.351 60.3845C29.351 59.8399 29.4295 59.3495 29.5843 58.927C29.9285 57.9895 30.6078 57.528 31.1601 57.3018V60.1657C31.1601 60.1815 31.1617 60.1969 31.163 60.2124C31.1605 60.2886 31.1601 60.3602 31.1601 60.4177C31.1601 60.7703 31.5183 61.0561 31.9601 61.0561C32.4019 61.0561 32.76 60.7702 32.76 60.4177C32.76 60.3407 32.7608 60.266 32.765 60.1844C32.8139 58.8495 33.2787 57.8849 34.1463 57.3175C34.2896 57.2237 34.4333 57.1486 34.5701 57.0886V59.825C33.8634 60.2286 33.3926 60.8495 33.2821 61.5526C33.151 62.3877 33.5492 63.2108 34.3478 63.7552C34.3709 63.7714 34.3927 63.7862 34.4126 63.7992C34.9788 64.1709 35.6694 64.3533 36.3609 64.3533C37.0734 64.3532 37.7862 64.1587 38.3641 63.7789C38.4852 63.9198 38.6063 64.0591 38.7272 64.1977C37.6304 64.4735 36.8661 65.3206 36.944 66.276C36.9715 66.6139 37.3234 66.873 37.7415 66.873C37.759 66.873 37.7766 66.8726 37.7943 66.8717C38.2351 66.8488 38.5693 66.545 38.5407 66.1932C38.5064 65.7737 38.906 65.4097 39.4319 65.382C39.5642 65.3748 39.6974 65.3913 39.8225 65.4278C40.6271 66.3123 41.4203 67.1418 42.1951 67.9082C42.7877 68.4942 43.2102 69.0976 43.4602 69.699C43.3844 69.7172 43.3096 69.7447 43.2381 69.7842C42.9556 69.9402 42.8317 70.231 42.9298 70.493C43.0292 70.7585 43.3476 70.9466 43.695 70.9466C43.7069 70.9466 43.7183 70.9447 43.7301 70.9443C43.7395 71.6387 43.5054 72.3108 43.022 72.9285C41.7344 74.5733 39.0897 75.3532 36.4407 74.869C35.792 74.7502 35.1485 74.5571 34.5277 74.2946C29.2387 72.0578 27.0093 69.4275 26.6865 67.712C26.44 66.4023 27.0764 65.1305 28.5779 63.9323C28.8903 63.683 28.8903 63.2788 28.5779 63.0294C28.2655 62.7801 27.7589 62.7801 27.4466 63.0294C25.5663 64.53 24.7783 66.1692 25.1042 67.9017C25.835 71.7857 31.9284 74.6405 33.7786 75.4231C34.3718 75.6738 34.9847 75.8713 35.6064 76.0143C35.9817 76.7404 36.3949 77.814 36.4443 79.0853C36.4577 79.431 36.8131 79.704 37.2434 79.704C37.2519 79.704 37.2603 79.7039 37.2688 79.7037C37.7104 79.6928 38.0572 79.3981 38.0436 79.0457C38.002 77.975 37.7362 77.0284 37.4282 76.2718C37.6188 76.2821 37.8089 76.2878 37.9978 76.2878C40.6243 76.2877 43.0496 75.3034 44.379 73.6052C45.9183 71.6389 45.5674 69.2094 43.4404 67.1065C42.1695 65.8491 40.846 64.4167 39.5014 62.8438L47.37 56.1542C47.6344 55.929 47.6598 55.5854 47.4301 55.3374ZM32.1904 86.8903C32.549 86.7269 32.8918 86.5548 33.2197 86.3756V92.0081H32.1904V86.8903ZM32.1904 93.2851H33.2197V93.8937H32.1904V93.2851ZM28.6692 93.2851H30.5903V93.8937H28.6692V93.2851ZM17.7497 88.4951C18.0672 88.5579 18.3926 88.614 18.7257 88.6629V92.0908H17.7497V88.4951ZM17.7497 93.3676H18.7257V93.8937H17.7497V93.3676ZM14.8984 93.3676H16.1496V93.8937H14.8984V93.3676ZM35.4259 62.8108C35.4163 62.8045 35.4076 62.7983 35.3981 62.7917C35.3953 62.7897 35.3923 62.7877 35.3895 62.7857C34.994 62.5172 34.8047 62.1256 34.8698 61.7112C34.936 61.2907 35.2466 60.9428 35.7222 60.7568L35.7712 60.7376C35.7354 61.3296 35.8109 62.1025 36.1434 63.0627C35.8864 63.0325 35.6379 62.9499 35.4259 62.8108ZM39.3565 61.1009L37.6339 62.5655C37.2021 61.2104 37.3975 60.3819 37.5221 60.0527L39.446 59.3C39.2926 59.8501 39.2137 60.4854 39.3565 61.1009ZM40.968 59.7308C41.0818 59.2502 41.2842 58.8053 41.4433 58.5184L43.2044 57.8294L40.968 59.7308Z" fill="#DC83C1" stroke="#DC83C1" stroke-width="0.3"/>
<path d="M38.6667 70.4429C38.1282 70.8237 38.4793 71.5583 39.198 71.5583C39.5962 71.5583 39.9449 71.3144 39.9918 70.9981C40.0765 70.4272 39.2091 70.0595 38.6667 70.4429Z" fill="#DC83C1" stroke="#DC83C1" stroke-width="0.3"/>
<path d="M35.7353 66.5724C35.6905 66.029 35.3832 65.5321 34.8701 65.1732C34.357 64.8143 33.6994 64.6365 33.0185 64.6719C31.6129 64.7455 30.5443 65.7181 30.6367 66.8397C30.6644 67.1772 31.0162 67.4363 31.4342 67.4363C31.4517 67.4363 31.4696 67.4359 31.4874 67.4349C31.9282 67.4119 32.2622 67.1079 32.2333 66.7562C32.1987 66.3369 32.5981 65.9735 33.1233 65.946C33.3777 65.9325 33.6236 65.9991 33.8153 66.1333C34.0071 66.2674 34.1218 66.4532 34.1386 66.6562C34.1675 67.008 34.5488 67.2746 34.9894 67.2514C35.4303 67.2281 35.7642 66.9242 35.7353 66.5724Z" fill="#DC83C1" stroke="#DC83C1" stroke-width="0.3"/>
<path d="M110.958 1.25906C110.728 1.01107 110.309 0.929475 109.962 1.06526L99.6976 5.08106V2.13733C99.6976 1.96083 99.606 1.79232 99.4448 1.67157C99.2835 1.55083 99.0663 1.48881 98.8462 1.50016C98.7376 1.5058 97.7565 1.57244 96.7576 2.18894C96.5875 2.29402 96.4316 2.40655 96.2873 2.52471V2.37139C96.2873 2.19543 96.1963 2.02724 96.0358 1.90657C95.8752 1.78598 95.6591 1.72325 95.4394 1.73414C95.3291 1.73939 92.9007 1.88245 91.7991 3.98753C90.5321 3.92958 87.7082 3.98651 85.4174 5.37619C83.644 6.45203 82.5838 8.07991 82.2662 10.2147C81.85 13.0166 82.2141 15.1795 82.4802 16.7588C82.8447 18.923 82.9201 19.8236 81.6797 20.5687C80.6936 20.1666 79.6166 19.9069 78.5141 19.8048C77.6824 17.0177 75.3451 15.4903 71.8755 15.4903C71.4336 15.4903 71.0755 15.7762 71.0755 16.1287C71.0755 16.4814 71.4337 16.7672 71.8755 16.7672C73.5247 16.7672 74.8141 17.1884 75.7078 18.0191C76.2792 18.55 76.6307 19.1921 76.8468 19.7725C75.9793 19.8179 75.1236 19.969 74.303 20.2185C72.6317 19.0715 70.6895 18.9576 68.911 19.9204C68.5453 20.1184 68.4499 20.5154 68.6981 20.8072C68.9461 21.0991 69.4436 21.1751 69.8093 20.9772C70.7835 20.4498 71.7493 20.4106 72.6914 20.8563C72.0792 21.1603 71.5 21.5236 70.9663 21.9421C69.2645 23.2769 68.2578 24.9899 68.1315 26.7654C67.9875 28.7768 68.8603 30.729 70.5404 32.2033C69.7645 33.2205 68.378 33.7226 67.2618 33.9687C67.8873 32.8428 68.2935 30.9905 67.0305 28.3054C65.3654 24.7665 65.9487 19.2388 69.1969 17.4159C69.5583 17.213 69.6452 16.8149 69.3911 16.5265C69.137 16.238 68.6379 16.1688 68.2765 16.3714C66.3807 17.4355 65.1025 19.4584 64.6777 22.0676C64.3089 24.3329 64.6286 26.8326 65.5329 28.7544C67.3696 32.6594 65.1424 34.2904 65.0536 34.3533C64.7936 34.5284 64.7007 34.8157 64.8222 35.0694C64.941 35.3171 65.2386 35.4798 65.5693 35.4798C65.5772 35.4798 65.5852 35.4798 65.5933 35.4796C65.7753 35.4753 69.7775 35.3527 71.7338 33.0838C73.05 34.1342 76.4057 34.7617 76.8261 34.8512V40.4539C76.8261 40.8065 77.1844 41.0923 77.6261 41.0923H80.4774H83.0534C83.4952 41.0923 83.8534 40.8064 83.8534 40.4539V34.7601C84.5817 34.8155 85.2962 34.8389 85.9786 34.8389C87.9153 34.8389 89.5923 34.6555 90.597 34.5143V40.4539C90.597 40.8065 90.9552 41.0923 91.3969 41.0923H97.5474C97.9892 41.0923 98.3473 40.8064 98.3473 40.4539V31.2684C99.7248 30.2199 100.675 28.9846 101.175 27.5919C101.296 27.2529 101.05 26.8994 100.626 26.8025C100.201 26.7055 99.7579 26.9016 99.6364 27.2406C99.1874 28.4927 98.2983 29.5988 96.993 30.5285C96.298 31.0241 95.4735 31.4758 94.5425 31.8711C94.2814 31.9819 94.118 32.1987 94.118 32.4348V37.9297H92.1969V30.6198C92.1969 30.2672 91.8387 29.9814 91.3969 29.9814C90.9551 29.9814 90.597 30.2673 90.597 30.6198V33.2149C89.3309 33.4045 86.2772 33.7654 83.1668 33.41C82.2963 33.3105 81.4756 33.1604 80.7276 32.964C80.3079 32.8537 79.8557 33.0359 79.7175 33.3708C79.6913 33.4344 79.6784 33.499 79.6774 33.5626V38.0123H78.4262V34.3476C78.4262 34.0424 78.1546 33.7797 77.7793 33.721C77.77 33.7196 75.0418 33.0651 74.7865 32.9903C73.8 32.7017 72.8912 32.2526 72.1245 31.6712C70.472 30.42 69.599 28.6585 69.7293 26.8382C69.9444 23.8164 73.3302 21.1599 77.1238 21.0375C77.3525 21.03 77.5859 21.0305 77.8161 21.0391C79.0476 21.0861 80.2596 21.3721 81.3219 21.8666C81.7157 22.0495 82.0906 22.2611 82.437 22.4957C83.5444 23.2446 85.133 23.3861 86.3896 22.8484C86.4692 22.8144 86.6602 22.7205 86.6602 22.7205C89.955 21.1068 89.2326 18.7631 88.4676 16.2818C88.1919 15.3877 87.9069 14.4632 87.7373 13.453C87.6787 13.1034 87.2764 12.8582 86.8383 12.9049C86.4004 12.9518 86.0929 13.273 86.1515 13.6224C86.3326 14.7012 86.6414 15.703 86.9139 16.5869C87.7299 19.2339 88.0245 20.5541 85.8201 21.6338C85.7952 21.6462 85.6771 21.7038 85.6343 21.7227C84.9511 22.0151 84.0818 21.9344 83.4721 21.5221C83.3488 21.4386 83.2218 21.3583 83.0926 21.2797C84.6513 20.0729 84.3885 18.5033 84.0662 16.5889C83.7973 14.993 83.4628 13.0068 83.8553 10.3654C84.1193 8.59179 84.9673 7.25716 86.3764 6.39878C88.0671 5.36883 90.2079 5.23736 91.3727 5.25466C91.3408 5.4285 91.3147 5.60617 91.2994 5.79035C90.7199 5.91853 89.844 6.17537 88.9707 6.67081C87.6109 7.44212 85.9899 8.95216 85.9899 11.7653C85.9899 12.118 86.3482 12.4038 86.7899 12.4038C87.2316 12.4038 87.5899 12.1179 87.5899 11.7653C87.5899 7.4902 91.9958 6.9596 92.1801 6.9394C92.5794 6.8986 92.8784 6.62735 92.8784 6.30614C92.8784 5.76153 92.9569 5.27111 93.1118 4.84865C93.456 3.91118 94.1353 3.44965 94.6876 3.22343V6.08736C94.6876 6.1031 94.6891 6.11853 94.6905 6.13403C94.688 6.21022 94.6876 6.28187 94.6876 6.33935C94.6876 6.69195 95.0458 6.97777 95.4875 6.97777C95.9294 6.97777 96.2875 6.69188 96.2875 6.33935C96.2875 6.26229 96.2883 6.18767 96.2924 6.10607C96.3414 4.77113 96.8062 3.80656 97.6738 3.23909C97.8171 3.14536 97.9608 3.07026 98.0975 3.0102V5.74665C97.3909 6.15024 96.9201 6.77112 96.8096 7.47422C96.6784 8.30935 97.0767 9.13241 97.8753 9.67687C97.8983 9.693 97.9201 9.70788 97.94 9.7208C98.5063 10.0925 99.1969 10.2749 99.8883 10.2749C100.601 10.2748 101.314 10.0803 101.892 9.70052C102.013 9.84139 102.134 9.98077 102.255 10.1194C101.158 10.3952 100.394 11.2422 100.471 12.1977C100.499 12.5355 100.851 12.7947 101.269 12.7947C101.286 12.7947 101.304 12.7943 101.322 12.7933C101.763 12.7705 102.097 12.4666 102.068 12.1148C102.034 11.6953 102.433 11.3314 102.959 11.3036C103.092 11.2965 103.225 11.3129 103.35 11.3495C104.155 12.2339 104.948 13.0634 105.723 13.8299C106.315 14.4158 106.738 15.0192 106.988 15.6206C106.912 15.6389 106.837 15.6664 106.766 15.7058C106.483 15.8618 106.359 16.1526 106.457 16.4146C106.557 16.6802 106.875 16.8683 107.222 16.8683C107.234 16.8683 107.246 16.8663 107.258 16.8659C107.267 17.5603 107.033 18.2324 106.549 18.8502C105.262 20.4949 102.617 21.2748 99.9682 20.7906C99.3195 20.6719 98.6759 20.4787 98.0551 20.2163C92.7662 17.9794 90.5368 15.3491 90.214 13.6336C89.9675 12.3239 90.6038 11.0521 92.1053 9.85392C92.4178 9.60459 92.4178 9.20038 92.1053 8.95106C91.7929 8.70174 91.2863 8.70174 90.974 8.95106C89.0938 10.4516 88.3058 12.0908 88.6317 13.8233C89.3625 17.7073 95.4558 20.5622 97.3061 21.3447C97.8992 21.5955 98.5122 21.793 99.1339 21.9359C99.5092 22.6621 99.9224 23.7356 99.9717 25.0069C99.9852 25.3526 100.341 25.6256 100.771 25.6256C100.779 25.6256 100.788 25.6255 100.796 25.6253C101.238 25.6144 101.585 25.3197 101.571 24.9674C101.529 23.8966 101.264 22.9501 100.956 22.1934C101.146 22.2037 101.336 22.2094 101.525 22.2094C104.152 22.2093 106.577 21.225 107.906 19.5268C109.446 17.5606 109.095 15.1311 106.968 13.0281C105.697 11.7708 104.373 10.3383 103.029 8.76548L110.897 2.07586C111.162 1.85066 111.187 1.50705 110.958 1.25906ZM95.7178 32.8119C96.0765 32.6485 96.4193 32.4764 96.7472 32.2972V37.9298H95.7178V32.8119ZM95.7178 39.2067H96.7472V39.8154H95.7178V39.2067ZM92.1967 39.2067H94.1178V39.8154H92.1967V39.2067ZM81.2771 34.4168C81.5946 34.4795 81.9201 34.5356 82.2531 34.5845V38.0124H81.2771V34.4168ZM81.2771 39.2892H82.2531V39.8153H81.2771V39.2892ZM78.4259 39.2892H79.6771V39.8153H78.4259V39.2892ZM98.9533 8.73243C98.9438 8.72617 98.9351 8.7199 98.9256 8.71332C98.9227 8.71129 98.9198 8.70933 98.9169 8.70737C98.5215 8.43879 98.3321 8.04718 98.3973 7.63287C98.4634 7.21237 98.7741 6.86446 99.2497 6.67841L99.2987 6.65922C99.2629 7.25121 99.3384 8.02408 99.6709 8.98434C99.4139 8.95411 99.1654 8.87158 98.9533 8.73243ZM102.884 7.02256L101.161 8.4871C100.73 7.13203 100.925 6.30356 101.05 5.97437L102.974 5.22162C102.82 5.77171 102.741 6.40708 102.884 7.02256ZM104.495 5.65245C104.609 5.17182 104.812 4.72689 104.971 4.44005L106.732 3.75105L104.495 5.65245Z" fill="#747373" stroke="#747373" stroke-width="0.3"/>
<path d="M102.194 16.3645C101.656 16.7454 102.007 17.48 102.725 17.48C103.124 17.48 103.472 17.2361 103.519 16.9198C103.604 16.3488 102.737 15.9811 102.194 16.3645Z" fill="#747373" stroke="#747373" stroke-width="0.3"/>
<path d="M99.2627 12.4941C99.218 11.9507 98.9107 11.4537 98.3976 11.0947C97.8845 10.7357 97.2269 10.5578 96.546 10.5933C95.1403 10.6669 94.0718 11.6396 94.1641 12.7615C94.1919 13.099 94.5437 13.3582 94.9617 13.3582C94.9792 13.3582 94.9971 13.3578 95.0148 13.3568C95.4557 13.3337 95.7897 13.0297 95.7607 12.6779C95.7262 12.2586 96.1256 11.8951 96.6508 11.8676C96.9052 11.8541 97.1511 11.9208 97.3427 12.055C97.5346 12.1891 97.6493 12.3749 97.666 12.578C97.695 12.9298 98.0763 13.1965 98.5168 13.1732C98.9578 13.1499 99.2917 12.846 99.2627 12.4941Z" fill="#747373" stroke="#747373" stroke-width="0.3"/>
<path d="M110.958 55.3374C110.728 55.0894 110.309 55.0078 109.962 55.1436L99.6976 59.1594V56.2157C99.6976 56.0392 99.606 55.8707 99.4448 55.7499C99.2835 55.6292 99.0663 55.5672 98.8462 55.5785C98.7376 55.5842 97.7565 55.6508 96.7576 56.2673C96.5875 56.3724 96.4316 56.4849 96.2873 56.6031V56.4498C96.2873 56.2738 96.1963 56.1056 96.0358 55.9849C95.8752 55.8643 95.6591 55.8016 95.4394 55.8125C95.3291 55.8178 92.9007 55.9608 91.7991 58.0659C90.5321 58.008 87.7082 58.0649 85.4174 59.4546C83.644 60.5304 82.5838 62.1583 82.2662 64.2931C81.85 67.095 82.2141 69.2579 82.4802 70.8372C82.8447 73.0014 82.9201 73.9019 81.6797 74.647C80.6936 74.245 79.6166 73.9853 78.5141 73.8832C77.6824 71.0961 75.3451 69.5687 71.8755 69.5687C71.4336 69.5687 71.0755 69.8546 71.0755 70.2071C71.0755 70.5597 71.4337 70.8455 71.8755 70.8455C73.5247 70.8455 74.8141 71.2667 75.7078 72.0975C76.2792 72.6284 76.6307 73.2705 76.8468 73.8509C75.9793 73.8962 75.1236 74.0474 74.303 74.2968C72.6317 73.1499 70.6895 73.036 68.911 73.9988C68.5453 74.1968 68.4499 74.5938 68.6981 74.8856C68.9461 75.1775 69.4436 75.2535 69.8093 75.0555C70.7835 74.5282 71.7493 74.4889 72.6914 74.9346C72.0792 75.2386 71.5 75.602 70.9663 76.0205C69.2645 77.3553 68.2578 79.0683 68.1315 80.8438C67.9875 82.8552 68.8603 84.8074 70.5404 86.2817C69.7645 87.2989 68.378 87.801 67.2618 88.0471C67.8873 86.9211 68.2935 85.0689 67.0305 82.3838C65.3654 78.8449 65.9487 73.3172 69.1969 71.4943C69.5583 71.2914 69.6452 70.8932 69.3911 70.6048C69.137 70.3164 68.6379 70.2471 68.2765 70.4498C66.3807 71.5139 65.1025 73.5368 64.6777 76.1459C64.3089 78.4112 64.6286 80.911 65.5329 82.8327C67.3696 86.7377 65.1424 88.3688 65.0536 88.4317C64.7936 88.6068 64.7007 88.894 64.8222 89.1477C64.941 89.3955 65.2386 89.5582 65.5693 89.5582C65.5772 89.5582 65.5852 89.5581 65.5933 89.558C65.7753 89.5537 69.7775 89.431 71.7338 87.1622C73.05 88.2125 76.4057 88.8401 76.8261 88.9296V94.5322C76.8261 94.8848 77.1844 95.1707 77.6261 95.1707H80.4774H83.0534C83.4952 95.1707 83.8534 94.8848 83.8534 94.5322V88.8384C84.5817 88.8939 85.2962 88.9173 85.9786 88.9173C87.9153 88.9173 89.5923 88.7339 90.597 88.5927V94.5322C90.597 94.8848 90.9552 95.1707 91.3969 95.1707H97.5474C97.9892 95.1707 98.3473 94.8848 98.3473 94.5322V85.3467C99.7248 84.2983 100.675 83.063 101.175 81.6703C101.296 81.3313 101.05 80.9778 100.626 80.8808C100.201 80.7839 99.7579 80.98 99.6364 81.3189C99.1874 82.571 98.2983 83.6772 96.993 84.6069C96.298 85.1025 95.4735 85.5542 94.5425 85.9494C94.2814 86.0602 94.118 86.2771 94.118 86.5132V92.0081H92.1969V84.6982C92.1969 84.3456 91.8387 84.0598 91.3969 84.0598C90.9551 84.0598 90.597 84.3457 90.597 84.6982V87.2932C89.3309 87.4829 86.2772 87.8437 83.1668 87.4884C82.2963 87.3888 81.4756 87.2388 80.7276 87.0423C80.3079 86.9321 79.8557 87.1142 79.7175 87.4491C79.6913 87.5128 79.6784 87.5773 79.6774 87.641V92.0907H78.4262V88.426C78.4262 88.1208 78.1546 87.858 77.7793 87.7994C77.77 87.798 75.0418 87.1434 74.7865 87.0687C73.8 86.78 72.8912 86.3309 72.1245 85.7495C70.472 84.4984 69.599 82.7369 69.7293 80.9165C69.9444 77.8947 73.3302 75.2383 77.1238 75.1159C77.3525 75.1083 77.5859 75.1089 77.8161 75.1175C79.0476 75.1645 80.2596 75.4505 81.3219 75.945C81.7157 76.1279 82.0906 76.3394 82.437 76.5741C83.5444 77.3229 85.133 77.4644 86.3896 76.9267C86.4692 76.8927 86.6602 76.7988 86.6602 76.7988C89.955 75.1851 89.2326 72.8415 88.4676 70.3602C88.1919 69.4661 87.9069 68.5416 87.7373 67.5314C87.6787 67.1818 87.2764 66.9365 86.8383 66.9833C86.4004 67.0301 86.0929 67.3514 86.1515 67.7008C86.3326 68.7795 86.6414 69.7814 86.9139 70.6653C87.7299 73.3122 88.0245 74.6325 85.8201 75.7122C85.7952 75.7246 85.6771 75.7822 85.6343 75.8011C84.9511 76.0935 84.0818 76.0127 83.4721 75.6005C83.3488 75.517 83.2218 75.4367 83.0926 75.3581C84.6513 74.1513 84.3885 72.5816 84.0662 70.6673C83.7973 69.0714 83.4628 67.0852 83.8553 64.4438C84.1193 62.6702 84.9673 61.3355 86.3764 60.4771C88.0671 59.4472 90.2079 59.3157 91.3727 59.333C91.3408 59.5069 91.3147 59.6845 91.2994 59.8687C90.7199 59.9969 89.844 60.2537 88.9707 60.7492C87.6109 61.5205 85.9899 63.0305 85.9899 65.8437C85.9899 66.1963 86.3482 66.4821 86.7899 66.4821C87.2316 66.4821 87.5899 66.1962 87.5899 65.8437C87.5899 61.5686 91.9958 61.038 92.1801 61.0178C92.5794 60.977 92.8784 60.7057 92.8784 60.3845C92.8784 59.8399 92.9569 59.3495 93.1118 58.927C93.456 57.9895 94.1353 57.528 94.6876 57.3018V60.1657C94.6876 60.1815 94.6891 60.1969 94.6905 60.2124C94.688 60.2886 94.6876 60.3602 94.6876 60.4177C94.6876 60.7703 95.0458 61.0561 95.4875 61.0561C95.9294 61.0561 96.2875 60.7702 96.2875 60.4177C96.2875 60.3407 96.2883 60.266 96.2924 60.1844C96.3414 58.8495 96.8062 57.8849 97.6738 57.3175C97.8171 57.2237 97.9608 57.1486 98.0975 57.0886V59.825C97.3909 60.2286 96.9201 60.8495 96.8096 61.5526C96.6784 62.3877 97.0767 63.2108 97.8753 63.7552C97.8983 63.7714 97.9201 63.7862 97.94 63.7992C98.5063 64.1709 99.1969 64.3533 99.8883 64.3533C100.601 64.3532 101.314 64.1587 101.892 63.7789C102.013 63.9198 102.134 64.0591 102.255 64.1977C101.158 64.4735 100.394 65.3206 100.471 66.276C100.499 66.6139 100.851 66.873 101.269 66.873C101.286 66.873 101.304 66.8726 101.322 66.8717C101.763 66.8488 102.097 66.545 102.068 66.1932C102.034 65.7737 102.433 65.4097 102.959 65.382C103.092 65.3748 103.225 65.3913 103.35 65.4278C104.155 66.3123 104.948 67.1418 105.723 67.9082C106.315 68.4942 106.738 69.0976 106.988 69.699C106.912 69.7172 106.837 69.7447 106.766 69.7842C106.483 69.9402 106.359 70.231 106.457 70.493C106.557 70.7585 106.875 70.9466 107.222 70.9466C107.234 70.9466 107.246 70.9447 107.258 70.9443C107.267 71.6387 107.033 72.3108 106.549 72.9285C105.262 74.5733 102.617 75.3532 99.9682 74.869C99.3195 74.7502 98.6759 74.5571 98.0551 74.2946C92.7662 72.0578 90.5368 69.4275 90.214 67.712C89.9675 66.4023 90.6038 65.1305 92.1053 63.9323C92.4178 63.683 92.4178 63.2788 92.1053 63.0294C91.7929 62.7801 91.2863 62.7801 90.974 63.0294C89.0938 64.53 88.3058 66.1692 88.6317 67.9017C89.3625 71.7857 95.4558 74.6405 97.3061 75.4231C97.8992 75.6738 98.5122 75.8713 99.1339 76.0143C99.5092 76.7404 99.9224 77.814 99.9717 79.0853C99.9852 79.431 100.341 79.704 100.771 79.704C100.779 79.704 100.788 79.7039 100.796 79.7037C101.238 79.6928 101.585 79.3981 101.571 79.0457C101.529 77.975 101.264 77.0284 100.956 76.2718C101.146 76.2821 101.336 76.2878 101.525 76.2878C104.152 76.2877 106.577 75.3034 107.906 73.6052C109.446 71.6389 109.095 69.2094 106.968 67.1065C105.697 65.8491 104.373 64.4167 103.029 62.8438L110.897 56.1542C111.162 55.929 111.187 55.5854 110.958 55.3374ZM95.7178 86.8903C96.0765 86.7269 96.4193 86.5548 96.7472 86.3756V92.0081H95.7178V86.8903ZM95.7178 93.2851H96.7472V93.8937H95.7178V93.2851ZM92.1967 93.2851H94.1178V93.8937H92.1967V93.2851ZM81.2771 88.4951C81.5946 88.5579 81.9201 88.614 82.2531 88.6629V92.0908H81.2771V88.4951ZM81.2771 93.3676H82.2531V93.8937H81.2771V93.3676ZM78.4259 93.3676H79.6771V93.8937H78.4259V93.3676ZM98.9533 62.8108C98.9438 62.8045 98.9351 62.7983 98.9256 62.7917C98.9227 62.7897 98.9198 62.7877 98.9169 62.7857C98.5215 62.5172 98.3321 62.1256 98.3973 61.7112C98.4634 61.2907 98.7741 60.9428 99.2497 60.7568L99.2987 60.7376C99.2629 61.3296 99.3384 62.1025 99.6709 63.0627C99.4139 63.0325 99.1654 62.9499 98.9533 62.8108ZM102.884 61.1009L101.161 62.5655C100.73 61.2104 100.925 60.3819 101.05 60.0527L102.974 59.3C102.82 59.8501 102.741 60.4854 102.884 61.1009ZM104.495 59.7308C104.609 59.2502 104.812 58.8053 104.971 58.5184L106.732 57.8294L104.495 59.7308Z" fill="#DC83C1" stroke="#DC83C1" stroke-width="0.3"/>
<path d="M102.194 70.4429C101.656 70.8237 102.007 71.5583 102.725 71.5583C103.124 71.5583 103.472 71.3144 103.519 70.9981C103.604 70.4272 102.737 70.0595 102.194 70.4429Z" fill="#DC83C1" stroke="#DC83C1" stroke-width="0.3"/>
<path d="M99.2627 66.5724C99.218 66.029 98.9107 65.5321 98.3976 65.1732C97.8845 64.8143 97.2269 64.6365 96.546 64.6719C95.1403 64.7455 94.0718 65.7181 94.1641 66.8397C94.1919 67.1772 94.5437 67.4363 94.9617 67.4363C94.9792 67.4363 94.9971 67.4359 95.0148 67.4349C95.4557 67.4119 95.7897 67.1079 95.7607 66.7562C95.7262 66.3369 96.1256 65.9735 96.6508 65.946C96.9052 65.9325 97.1511 65.9991 97.3427 66.1333C97.5346 66.2674 97.6493 66.4532 97.666 66.6562C97.695 67.008 98.0763 67.2746 98.5168 67.2514C98.9578 67.2281 99.2917 66.9242 99.2627 66.5724Z" fill="#DC83C1" stroke="#DC83C1" stroke-width="0.3"/>
<path d="M174.485 1.25906C174.255 1.01107 173.836 0.929475 173.489 1.06526L163.225 5.08106V2.13733C163.225 1.96083 163.133 1.79232 162.972 1.67157C162.811 1.55083 162.593 1.48881 162.373 1.50016C162.265 1.5058 161.284 1.57244 160.285 2.18894C160.115 2.29402 159.959 2.40655 159.815 2.52471V2.37139C159.815 2.19543 159.723 2.02724 159.563 1.90657C159.402 1.78598 159.186 1.72325 158.967 1.73414C158.856 1.73939 156.428 1.88245 155.326 3.98753C154.059 3.92958 151.235 3.98651 148.945 5.37619C147.171 6.45203 146.111 8.07991 145.793 10.2147C145.377 13.0166 145.741 15.1795 146.007 16.7588C146.372 18.923 146.447 19.8236 145.207 20.5687C144.221 20.1666 143.144 19.9069 142.041 19.8048C141.21 17.0177 138.872 15.4903 135.403 15.4903C134.961 15.4903 134.603 15.7762 134.603 16.1287C134.603 16.4814 134.961 16.7672 135.403 16.7672C137.052 16.7672 138.341 17.1884 139.235 18.0191C139.806 18.55 140.158 19.1921 140.374 19.7725C139.507 19.8179 138.651 19.969 137.83 20.2185C136.159 19.0715 134.217 18.9576 132.438 19.9204C132.073 20.1184 131.977 20.5154 132.225 20.8072C132.473 21.0991 132.971 21.1751 133.336 20.9772C134.311 20.4498 135.277 20.4106 136.219 20.8563C135.606 21.1603 135.027 21.5236 134.494 21.9421C132.792 23.2769 131.785 24.9899 131.659 26.7654C131.515 28.7768 132.387 30.729 134.068 32.2033C133.292 33.2205 131.905 33.7226 130.789 33.9687C131.415 32.8428 131.821 30.9905 130.558 28.3054C128.893 24.7665 129.476 19.2388 132.724 17.4159C133.085 17.213 133.172 16.8149 132.918 16.5265C132.664 16.238 132.165 16.1688 131.804 16.3714C129.908 17.4355 128.63 19.4584 128.205 22.0676C127.836 24.3329 128.156 26.8326 129.06 28.7544C130.897 32.6594 128.67 34.2904 128.581 34.3533C128.321 34.5284 128.228 34.8157 128.349 35.0694C128.468 35.3171 128.766 35.4798 129.097 35.4798C129.104 35.4798 129.112 35.4798 129.12 35.4796C129.302 35.4753 133.305 35.3527 135.261 33.0838C136.577 34.1342 139.933 34.7617 140.353 34.8512V40.4539C140.353 40.8065 140.712 41.0923 141.153 41.0923H144.005H146.581C147.022 41.0923 147.381 40.8064 147.381 40.4539V34.7601C148.109 34.8155 148.823 34.8389 149.506 34.8389C151.443 34.8389 153.12 34.6555 154.124 34.5143V40.4539C154.124 40.8065 154.482 41.0923 154.924 41.0923H161.075C161.516 41.0923 161.875 40.8064 161.875 40.4539V31.2684C163.252 30.2199 164.203 28.9846 164.702 27.5919C164.823 27.2529 164.578 26.8994 164.153 26.8025C163.728 26.7055 163.285 26.9016 163.164 27.2406C162.715 28.4927 161.826 29.5988 160.52 30.5285C159.825 31.0241 159.001 31.4758 158.07 31.8711C157.809 31.9819 157.645 32.1987 157.645 32.4348V37.9297H155.724V30.6198C155.724 30.2672 155.366 29.9814 154.924 29.9814C154.482 29.9814 154.124 30.2673 154.124 30.6198V33.2149C152.858 33.4045 149.804 33.7654 146.694 33.41C145.824 33.3105 145.003 33.1604 144.255 32.964C143.835 32.8537 143.383 33.0359 143.245 33.3708C143.219 33.4344 143.206 33.499 143.205 33.5626V38.0123H141.953V34.3476C141.953 34.0424 141.682 33.7797 141.306 33.721C141.297 33.7196 138.569 33.0651 138.314 32.9903C137.327 32.7017 136.418 32.2526 135.652 31.6712C133.999 30.42 133.126 28.6585 133.257 26.8382C133.472 23.8164 136.857 21.1599 140.651 21.0375C140.88 21.03 141.113 21.0305 141.343 21.0391C142.575 21.0861 143.787 21.3721 144.849 21.8666C145.243 22.0495 145.618 22.2611 145.964 22.4957C147.072 23.2446 148.66 23.3861 149.917 22.8484C149.996 22.8144 150.187 22.7205 150.187 22.7205C153.482 21.1068 152.76 18.7631 151.995 16.2818C151.719 15.3877 151.434 14.4632 151.265 13.453C151.206 13.1034 150.804 12.8582 150.365 12.9049C149.928 12.9518 149.62 13.273 149.679 13.6224C149.86 14.7012 150.169 15.703 150.441 16.5869C151.257 19.2339 151.552 20.5541 149.347 21.6338C149.322 21.6462 149.204 21.7038 149.162 21.7227C148.478 22.0151 147.609 21.9344 146.999 21.5221C146.876 21.4386 146.749 21.3583 146.62 21.2797C148.178 20.0729 147.916 18.5033 147.593 16.5889C147.325 14.993 146.99 13.0068 147.383 10.3654C147.646 8.59179 148.495 7.25716 149.904 6.39878C151.594 5.36883 153.735 5.23736 154.9 5.25466C154.868 5.4285 154.842 5.60617 154.827 5.79035C154.247 5.91853 153.371 6.17537 152.498 6.67081C151.138 7.44212 149.517 8.95216 149.517 11.7653C149.517 12.118 149.875 12.4038 150.317 12.4038C150.759 12.4038 151.117 12.1179 151.117 11.7653C151.117 7.4902 155.523 6.9596 155.707 6.9394C156.107 6.8986 156.406 6.62735 156.406 6.30614C156.406 5.76153 156.484 5.27111 156.639 4.84865C156.983 3.91118 157.662 3.44965 158.215 3.22343V6.08736C158.215 6.1031 158.216 6.11853 158.218 6.13403C158.215 6.21022 158.215 6.28187 158.215 6.33935C158.215 6.69195 158.573 6.97777 159.015 6.97777C159.457 6.97777 159.815 6.69188 159.815 6.33935C159.815 6.26229 159.816 6.18767 159.82 6.10607C159.869 4.77113 160.333 3.80656 161.201 3.23909C161.344 3.14536 161.488 3.07026 161.625 3.0102V5.74665C160.918 6.15024 160.447 6.77112 160.337 7.47422C160.206 8.30935 160.604 9.13241 161.403 9.67687C161.426 9.693 161.447 9.70788 161.467 9.7208C162.034 10.0925 162.724 10.2749 163.416 10.2749C164.128 10.2748 164.841 10.0803 165.419 9.70052C165.54 9.84139 165.661 9.98077 165.782 10.1194C164.685 10.3952 163.921 11.2422 163.999 12.1977C164.026 12.5355 164.378 12.7947 164.796 12.7947C164.814 12.7947 164.831 12.7943 164.849 12.7933C165.29 12.7705 165.624 12.4666 165.595 12.1148C165.561 11.6953 165.961 11.3314 166.487 11.3036C166.619 11.2965 166.752 11.3129 166.877 11.3495C167.682 12.2339 168.475 13.0634 169.25 13.8299C169.842 14.4158 170.265 15.0192 170.515 15.6206C170.439 15.6389 170.364 15.6664 170.293 15.7058C170.01 15.8618 169.886 16.1526 169.984 16.4146C170.084 16.6802 170.402 16.8683 170.75 16.8683C170.762 16.8683 170.773 16.8663 170.785 16.8659C170.794 17.5603 170.56 18.2324 170.077 18.8502C168.789 20.4949 166.144 21.2748 163.495 20.7906C162.847 20.6719 162.203 20.4787 161.582 20.2163C156.293 17.9794 154.064 15.3491 153.741 13.6336C153.495 12.3239 154.131 11.0521 155.633 9.85392C155.945 9.60459 155.945 9.20038 155.633 8.95106C155.32 8.70174 154.814 8.70174 154.501 8.95106C152.621 10.4516 151.833 12.0908 152.159 13.8233C152.89 17.7073 158.983 20.5622 160.833 21.3447C161.426 21.5955 162.039 21.793 162.661 21.9359C163.036 22.6621 163.45 23.7356 163.499 25.0069C163.512 25.3526 163.868 25.6256 164.298 25.6256C164.307 25.6256 164.315 25.6255 164.323 25.6253C164.765 25.6144 165.112 25.3197 165.098 24.9674C165.057 23.8966 164.791 22.9501 164.483 22.1934C164.674 22.2037 164.864 22.2094 165.052 22.2094C167.679 22.2093 170.104 21.225 171.434 19.5268C172.973 17.5606 172.622 15.1311 170.495 13.0281C169.224 11.7708 167.901 10.3383 166.556 8.76548L174.425 2.07586C174.689 1.85066 174.715 1.50705 174.485 1.25906ZM159.245 32.8119C159.604 32.6485 159.947 32.4764 160.274 32.2972V37.9298H159.245V32.8119ZM159.245 39.2067H160.274V39.8154H159.245V39.2067ZM155.724 39.2067H157.645V39.8154H155.724V39.2067ZM144.804 34.4168C145.122 34.4795 145.447 34.5356 145.78 34.5845V38.0124H144.804V34.4168ZM144.804 39.2892H145.78V39.8153H144.804V39.2892ZM141.953 39.2892H143.204V39.8153H141.953V39.2892ZM162.481 8.73243C162.471 8.72617 162.462 8.7199 162.453 8.71332C162.45 8.71129 162.447 8.70933 162.444 8.70737C162.049 8.43879 161.859 8.04718 161.925 7.63287C161.991 7.21237 162.301 6.86446 162.777 6.67841L162.826 6.65922C162.79 7.25121 162.866 8.02408 163.198 8.98434C162.941 8.95411 162.693 8.87158 162.481 8.73243ZM166.411 7.02256L164.689 8.4871C164.257 7.13203 164.452 6.30356 164.577 5.97437L166.501 5.22162C166.347 5.77171 166.268 6.40708 166.411 7.02256ZM168.023 5.65245C168.136 5.17182 168.339 4.72689 168.498 4.44005L170.259 3.75105L168.023 5.65245Z" fill="#747373" stroke="#747373" stroke-width="0.3"/>
<path d="M165.722 16.3645C165.183 16.7454 165.534 17.48 166.253 17.48C166.651 17.48 167 17.2361 167.047 16.9198C167.131 16.3488 166.264 15.9811 165.722 16.3645Z" fill="#747373" stroke="#747373" stroke-width="0.3"/>
<path d="M162.79 12.4941C162.745 11.9507 162.438 11.4537 161.925 11.0947C161.412 10.7357 160.754 10.5578 160.073 10.5933C158.668 10.6669 157.599 11.6396 157.691 12.7615C157.719 13.099 158.071 13.3582 158.489 13.3582C158.507 13.3582 158.524 13.3578 158.542 13.3568C158.983 13.3337 159.317 13.0297 159.288 12.6779C159.254 12.2586 159.653 11.8951 160.178 11.8676C160.433 11.8541 160.678 11.9208 160.87 12.055C161.062 12.1891 161.177 12.3749 161.193 12.578C161.222 12.9298 161.604 13.1965 162.044 13.1732C162.485 13.1499 162.819 12.846 162.79 12.4941Z" fill="#747373" stroke="#747373" stroke-width="0.3"/>
<path d="M174.485 55.3374C174.255 55.0894 173.836 55.0078 173.489 55.1436L163.225 59.1594V56.2157C163.225 56.0392 163.133 55.8707 162.972 55.7499C162.811 55.6292 162.593 55.5672 162.373 55.5785C162.265 55.5842 161.284 55.6508 160.285 56.2673C160.115 56.3724 159.959 56.4849 159.815 56.6031V56.4498C159.815 56.2738 159.723 56.1056 159.563 55.9849C159.402 55.8643 159.186 55.8016 158.967 55.8125C158.856 55.8178 156.428 55.9608 155.326 58.0659C154.059 58.008 151.235 58.0649 148.945 59.4546C147.171 60.5304 146.111 62.1583 145.793 64.2931C145.377 67.095 145.741 69.2579 146.007 70.8372C146.372 73.0014 146.447 73.9019 145.207 74.647C144.221 74.245 143.144 73.9853 142.041 73.8832C141.21 71.0961 138.872 69.5687 135.403 69.5687C134.961 69.5687 134.603 69.8546 134.603 70.2071C134.603 70.5597 134.961 70.8455 135.403 70.8455C137.052 70.8455 138.341 71.2667 139.235 72.0975C139.806 72.6284 140.158 73.2705 140.374 73.8509C139.507 73.8962 138.651 74.0474 137.83 74.2968C136.159 73.1499 134.217 73.036 132.438 73.9988C132.073 74.1968 131.977 74.5938 132.225 74.8856C132.473 75.1775 132.971 75.2535 133.336 75.0555C134.311 74.5282 135.277 74.4889 136.219 74.9346C135.606 75.2386 135.027 75.602 134.494 76.0205C132.792 77.3553 131.785 79.0683 131.659 80.8438C131.515 82.8552 132.387 84.8074 134.068 86.2817C133.292 87.2989 131.905 87.801 130.789 88.0471C131.415 86.9211 131.821 85.0689 130.558 82.3838C128.893 78.8449 129.476 73.3172 132.724 71.4943C133.085 71.2914 133.172 70.8932 132.918 70.6048C132.664 70.3164 132.165 70.2471 131.804 70.4498C129.908 71.5139 128.63 73.5368 128.205 76.1459C127.836 78.4112 128.156 80.911 129.06 82.8327C130.897 86.7377 128.67 88.3688 128.581 88.4317C128.321 88.6068 128.228 88.894 128.349 89.1477C128.468 89.3955 128.766 89.5582 129.097 89.5582C129.104 89.5582 129.112 89.5581 129.12 89.558C129.302 89.5537 133.305 89.431 135.261 87.1622C136.577 88.2125 139.933 88.8401 140.353 88.9296V94.5322C140.353 94.8848 140.712 95.1707 141.153 95.1707H144.005H146.581C147.022 95.1707 147.381 94.8848 147.381 94.5322V88.8384C148.109 88.8939 148.823 88.9173 149.506 88.9173C151.443 88.9173 153.12 88.7339 154.124 88.5927V94.5322C154.124 94.8848 154.482 95.1707 154.924 95.1707H161.075C161.516 95.1707 161.875 94.8848 161.875 94.5322V85.3467C163.252 84.2983 164.203 83.063 164.702 81.6703C164.823 81.3313 164.578 80.9778 164.153 80.8808C163.728 80.7839 163.285 80.98 163.164 81.3189C162.715 82.571 161.826 83.6772 160.52 84.6069C159.825 85.1025 159.001 85.5542 158.07 85.9494C157.809 86.0602 157.645 86.2771 157.645 86.5132V92.0081H155.724V84.6982C155.724 84.3456 155.366 84.0598 154.924 84.0598C154.482 84.0598 154.124 84.3457 154.124 84.6982V87.2932C152.858 87.4829 149.804 87.8437 146.694 87.4884C145.824 87.3888 145.003 87.2388 144.255 87.0423C143.835 86.9321 143.383 87.1142 143.245 87.4491C143.219 87.5128 143.206 87.5773 143.205 87.641V92.0907H141.953V88.426C141.953 88.1208 141.682 87.858 141.306 87.7994C141.297 87.798 138.569 87.1434 138.314 87.0687C137.327 86.78 136.418 86.3309 135.652 85.7495C133.999 84.4984 133.126 82.7369 133.257 80.9165C133.472 77.8947 136.857 75.2383 140.651 75.1159C140.88 75.1083 141.113 75.1089 141.343 75.1175C142.575 75.1645 143.787 75.4505 144.849 75.945C145.243 76.1279 145.618 76.3394 145.964 76.5741C147.072 77.3229 148.66 77.4644 149.917 76.9267C149.996 76.8927 150.187 76.7988 150.187 76.7988C153.482 75.1851 152.76 72.8415 151.995 70.3602C151.719 69.4661 151.434 68.5416 151.265 67.5314C151.206 67.1818 150.804 66.9365 150.365 66.9833C149.928 67.0301 149.62 67.3514 149.679 67.7008C149.86 68.7795 150.169 69.7814 150.441 70.6653C151.257 73.3122 151.552 74.6325 149.347 75.7122C149.322 75.7246 149.204 75.7822 149.162 75.8011C148.478 76.0935 147.609 76.0127 146.999 75.6005C146.876 75.517 146.749 75.4367 146.62 75.3581C148.178 74.1513 147.916 72.5816 147.593 70.6673C147.325 69.0714 146.99 67.0852 147.383 64.4438C147.646 62.6702 148.495 61.3355 149.904 60.4771C151.594 59.4472 153.735 59.3157 154.9 59.333C154.868 59.5069 154.842 59.6845 154.827 59.8687C154.247 59.9969 153.371 60.2537 152.498 60.7492C151.138 61.5205 149.517 63.0305 149.517 65.8437C149.517 66.1963 149.875 66.4821 150.317 66.4821C150.759 66.4821 151.117 66.1962 151.117 65.8437C151.117 61.5686 155.523 61.038 155.707 61.0178C156.107 60.977 156.406 60.7057 156.406 60.3845C156.406 59.8399 156.484 59.3495 156.639 58.927C156.983 57.9895 157.662 57.528 158.215 57.3018V60.1657C158.215 60.1815 158.216 60.1969 158.218 60.2124C158.215 60.2886 158.215 60.3602 158.215 60.4177C158.215 60.7703 158.573 61.0561 159.015 61.0561C159.457 61.0561 159.815 60.7702 159.815 60.4177C159.815 60.3407 159.816 60.266 159.82 60.1844C159.869 58.8495 160.333 57.8849 161.201 57.3175C161.344 57.2237 161.488 57.1486 161.625 57.0886V59.825C160.918 60.2286 160.447 60.8495 160.337 61.5526C160.206 62.3877 160.604 63.2108 161.403 63.7552C161.426 63.7714 161.447 63.7862 161.467 63.7992C162.034 64.1709 162.724 64.3533 163.416 64.3533C164.128 64.3532 164.841 64.1587 165.419 63.7789C165.54 63.9198 165.661 64.0591 165.782 64.1977C164.685 64.4735 163.921 65.3206 163.999 66.276C164.026 66.6139 164.378 66.873 164.796 66.873C164.814 66.873 164.831 66.8726 164.849 66.8717C165.29 66.8488 165.624 66.545 165.595 66.1932C165.561 65.7737 165.961 65.4097 166.487 65.382C166.619 65.3748 166.752 65.3913 166.877 65.4278C167.682 66.3123 168.475 67.1418 169.25 67.9082C169.842 68.4942 170.265 69.0976 170.515 69.699C170.439 69.7172 170.364 69.7447 170.293 69.7842C170.01 69.9402 169.886 70.231 169.984 70.493C170.084 70.7585 170.402 70.9466 170.75 70.9466C170.762 70.9466 170.773 70.9447 170.785 70.9443C170.794 71.6387 170.56 72.3108 170.077 72.9285C168.789 74.5733 166.144 75.3532 163.495 74.869C162.847 74.7502 162.203 74.5571 161.582 74.2946C156.293 72.0578 154.064 69.4275 153.741 67.712C153.495 66.4023 154.131 65.1305 155.633 63.9323C155.945 63.683 155.945 63.2788 155.633 63.0294C155.32 62.7801 154.814 62.7801 154.501 63.0294C152.621 64.53 151.833 66.1692 152.159 67.9017C152.89 71.7857 158.983 74.6405 160.833 75.4231C161.426 75.6738 162.039 75.8713 162.661 76.0143C163.036 76.7404 163.45 77.814 163.499 79.0853C163.512 79.431 163.868 79.704 164.298 79.704C164.307 79.704 164.315 79.7039 164.323 79.7037C164.765 79.6928 165.112 79.3981 165.098 79.0457C165.057 77.975 164.791 77.0284 164.483 76.2718C164.674 76.2821 164.864 76.2878 165.052 76.2878C167.679 76.2877 170.104 75.3034 171.434 73.6052C172.973 71.6389 172.622 69.2094 170.495 67.1065C169.224 65.8491 167.901 64.4167 166.556 62.8438L174.425 56.1542C174.689 55.929 174.715 55.5854 174.485 55.3374ZM159.245 86.8903C159.604 86.7269 159.947 86.5548 160.274 86.3756V92.0081H159.245V86.8903ZM159.245 93.2851H160.274V93.8937H159.245V93.2851ZM155.724 93.2851H157.645V93.8937H155.724V93.2851ZM144.804 88.4951C145.122 88.5579 145.447 88.614 145.78 88.6629V92.0908H144.804V88.4951ZM144.804 93.3676H145.78V93.8937H144.804V93.3676ZM141.953 93.3676H143.204V93.8937H141.953V93.3676ZM162.481 62.8108C162.471 62.8045 162.462 62.7983 162.453 62.7917C162.45 62.7897 162.447 62.7877 162.444 62.7857C162.049 62.5172 161.859 62.1256 161.925 61.7112C161.991 61.2907 162.301 60.9428 162.777 60.7568L162.826 60.7376C162.79 61.3296 162.866 62.1025 163.198 63.0627C162.941 63.0325 162.693 62.9499 162.481 62.8108ZM166.411 61.1009L164.689 62.5655C164.257 61.2104 164.452 60.3819 164.577 60.0527L166.501 59.3C166.347 59.8501 166.268 60.4854 166.411 61.1009ZM168.023 59.7308C168.136 59.2502 168.339 58.8053 168.498 58.5184L170.259 57.8294L168.023 59.7308Z" fill="#DC83C1" stroke="#DC83C1" stroke-width="0.3"/>
<path d="M165.722 70.4429C165.183 70.8237 165.534 71.5583 166.253 71.5583C166.651 71.5583 167 71.3144 167.047 70.9981C167.131 70.4272 166.264 70.0595 165.722 70.4429Z" fill="#DC83C1" stroke="#DC83C1" stroke-width="0.3"/>
<path d="M162.79 66.5724C162.745 66.029 162.438 65.5321 161.925 65.1732C161.412 64.8143 160.754 64.6365 160.073 64.6719C158.668 64.7455 157.599 65.7181 157.691 66.8397C157.719 67.1772 158.071 67.4363 158.489 67.4363C158.507 67.4363 158.524 67.4359 158.542 67.4349C158.983 67.4119 159.317 67.1079 159.288 66.7562C159.254 66.3369 159.653 65.9735 160.178 65.946C160.433 65.9325 160.678 65.9991 160.87 66.1333C161.062 66.2674 161.177 66.4532 161.193 66.6562C161.222 67.008 161.604 67.2746 162.044 67.2514C162.485 67.2281 162.819 66.9242 162.79 66.5724Z" fill="#DC83C1" stroke="#DC83C1" stroke-width="0.3"/>
<path d="M238.012 1.25906C237.783 1.01107 237.364 0.929475 237.017 1.06526L226.752 5.08106V2.13733C226.752 1.96083 226.661 1.79232 226.5 1.67157C226.338 1.55083 226.121 1.48881 225.901 1.50016C225.792 1.5058 224.811 1.57244 223.812 2.18894C223.642 2.29402 223.486 2.40655 223.342 2.52471V2.37139C223.342 2.19543 223.251 2.02724 223.091 1.90657C222.93 1.78598 222.714 1.72325 222.494 1.73414C222.384 1.73939 219.955 1.88245 218.854 3.98753C217.587 3.92958 214.763 3.98651 212.472 5.37619C210.699 6.45203 209.638 8.07991 209.321 10.2147C208.905 13.0166 209.269 15.1795 209.535 16.7588C209.899 18.923 209.975 19.8236 208.734 20.5687C207.748 20.1666 206.671 19.9069 205.569 19.8048C204.737 17.0177 202.4 15.4903 198.93 15.4903C198.488 15.4903 198.13 15.7762 198.13 16.1287C198.13 16.4814 198.488 16.7672 198.93 16.7672C200.579 16.7672 201.869 17.1884 202.763 18.0191C203.334 18.55 203.685 19.1921 203.902 19.7725C203.034 19.8179 202.178 19.969 201.358 20.2185C199.686 19.0715 197.744 18.9576 195.966 19.9204C195.6 20.1184 195.505 20.5154 195.753 20.8072C196.001 21.0991 196.498 21.1751 196.864 20.9772C197.838 20.4498 198.804 20.4106 199.746 20.8563C199.134 21.1603 198.555 21.5236 198.021 21.9421C196.319 23.2769 195.312 24.9899 195.186 26.7654C195.042 28.7768 195.915 30.729 197.595 32.2033C196.819 33.2205 195.433 33.7226 194.316 33.9687C194.942 32.8428 195.348 30.9905 194.085 28.3054C192.42 24.7665 193.003 19.2388 196.252 17.4159C196.613 17.213 196.7 16.8149 196.446 16.5265C196.192 16.238 195.693 16.1688 195.331 16.3714C193.435 17.4355 192.157 19.4584 191.732 22.0676C191.364 24.3329 191.683 26.8326 192.588 28.7544C194.424 32.6594 192.197 34.2904 192.108 34.3533C191.848 34.5284 191.755 34.8157 191.877 35.0694C191.996 35.3171 192.293 35.4798 192.624 35.4798C192.632 35.4798 192.64 35.4798 192.648 35.4796C192.83 35.4753 196.832 35.3527 198.788 33.0838C200.105 34.1342 203.46 34.7617 203.881 34.8512V40.4539C203.881 40.8065 204.239 41.0923 204.681 41.0923H207.532H210.108C210.55 41.0923 210.908 40.8064 210.908 40.4539V34.7601C211.636 34.8155 212.351 34.8389 213.033 34.8389C214.97 34.8389 216.647 34.6555 217.652 34.5143V40.4539C217.652 40.8065 218.01 41.0923 218.452 41.0923H224.602C225.044 41.0923 225.402 40.8064 225.402 40.4539V31.2684C226.78 30.2199 227.73 28.9846 228.229 27.5919C228.351 27.2529 228.105 26.8994 227.68 26.8025C227.256 26.7055 226.813 26.9016 226.691 27.2406C226.242 28.4927 225.353 29.5988 224.048 30.5285C223.353 31.0241 222.528 31.4758 221.597 31.8711C221.336 31.9819 221.173 32.1987 221.173 32.4348V37.9297H219.252V30.6198C219.252 30.2672 218.893 29.9814 218.452 29.9814C218.01 29.9814 217.652 30.2673 217.652 30.6198V33.2149C216.386 33.4045 213.332 33.7654 210.222 33.41C209.351 33.3105 208.53 33.1604 207.782 32.964C207.363 32.8537 206.91 33.0359 206.772 33.3708C206.746 33.4344 206.733 33.499 206.732 33.5626V38.0123H205.481V34.3476C205.481 34.0424 205.209 33.7797 204.834 33.721C204.825 33.7196 202.096 33.0651 201.841 32.9903C200.855 32.7017 199.946 32.2526 199.179 31.6712C197.527 30.42 196.654 28.6585 196.784 26.8382C196.999 23.8164 200.385 21.1599 204.178 21.0375C204.407 21.03 204.641 21.0305 204.871 21.0391C206.102 21.0861 207.314 21.3721 208.377 21.8666C208.77 22.0495 209.145 22.2611 209.492 22.4957C210.599 23.2446 212.188 23.3861 213.444 22.8484C213.524 22.8144 213.715 22.7205 213.715 22.7205C217.01 21.1068 216.287 18.7631 215.522 16.2818C215.247 15.3877 214.962 14.4632 214.792 13.453C214.733 13.1034 214.331 12.8582 213.893 12.9049C213.455 12.9518 213.148 13.273 213.206 13.6224C213.387 14.7012 213.696 15.703 213.969 16.5869C214.785 19.2339 215.079 20.5541 212.875 21.6338C212.85 21.6462 212.732 21.7038 212.689 21.7227C212.006 22.0151 211.136 21.9344 210.527 21.5221C210.404 21.4386 210.276 21.3583 210.147 21.2797C211.706 20.0729 211.443 18.5033 211.121 16.5889C210.852 14.993 210.518 13.0068 210.91 10.3654C211.174 8.59179 212.022 7.25716 213.431 6.39878C215.122 5.36883 217.263 5.23736 218.427 5.25466C218.395 5.4285 218.369 5.60617 218.354 5.79035C217.775 5.91853 216.899 6.17537 216.025 6.67081C214.666 7.44212 213.045 8.95216 213.045 11.7653C213.045 12.118 213.403 12.4038 213.845 12.4038C214.286 12.4038 214.645 12.1179 214.645 11.7653C214.645 7.4902 219.051 6.9596 219.235 6.9394C219.634 6.8986 219.933 6.62735 219.933 6.30614C219.933 5.76153 220.012 5.27111 220.166 4.84865C220.511 3.91118 221.19 3.44965 221.742 3.22343V6.08736C221.742 6.1031 221.744 6.11853 221.745 6.13403C221.743 6.21022 221.742 6.28187 221.742 6.33935C221.742 6.69195 222.1 6.97777 222.542 6.97777C222.984 6.97777 223.342 6.69188 223.342 6.33935C223.342 6.26229 223.343 6.18767 223.347 6.10607C223.396 4.77113 223.861 3.80656 224.728 3.23909C224.872 3.14536 225.015 3.07026 225.152 3.0102V5.74665C224.446 6.15024 223.975 6.77112 223.864 7.47422C223.733 8.30935 224.131 9.13241 224.93 9.67687C224.953 9.693 224.975 9.70788 224.995 9.7208C225.561 10.0925 226.252 10.2749 226.943 10.2749C227.656 10.2748 228.368 10.0803 228.946 9.70052C229.067 9.84139 229.188 9.98077 229.309 10.1194C228.213 10.3952 227.448 11.2422 227.526 12.1977C227.554 12.5355 227.906 12.7947 228.324 12.7947C228.341 12.7947 228.359 12.7943 228.376 12.7933C228.817 12.7705 229.151 12.4666 229.123 12.1148C229.089 11.6953 229.488 11.3314 230.014 11.3036C230.146 11.2965 230.28 11.3129 230.405 11.3495C231.209 12.2339 232.002 13.0634 232.777 13.8299C233.37 14.4158 233.792 15.0192 234.042 15.6206C233.967 15.6389 233.892 15.6664 233.82 15.7058C233.538 15.8618 233.414 16.1526 233.512 16.4146C233.611 16.6802 233.93 16.8683 234.277 16.8683C234.289 16.8683 234.3 16.8663 234.312 16.8659C234.322 17.5603 234.088 18.2324 233.604 18.8502C232.317 20.4949 229.672 21.2748 227.023 20.7906C226.374 20.6719 225.731 20.4787 225.11 20.2163C219.821 17.9794 217.591 15.3491 217.269 13.6336C217.022 12.3239 217.659 11.0521 219.16 9.85392C219.472 9.60459 219.472 9.20038 219.16 8.95106C218.848 8.70174 218.341 8.70174 218.029 8.95106C216.148 10.4516 215.36 12.0908 215.686 13.8233C216.417 17.7073 222.511 20.5622 224.361 21.3447C224.954 21.5955 225.567 21.793 226.189 21.9359C226.564 22.6621 226.977 23.7356 227.026 25.0069C227.04 25.3526 227.395 25.6256 227.826 25.6256C227.834 25.6256 227.842 25.6255 227.851 25.6253C228.293 25.6144 228.639 25.3197 228.626 24.9674C228.584 23.8966 228.318 22.9501 228.01 22.1934C228.201 22.2037 228.391 22.2094 228.58 22.2094C231.206 22.2093 233.632 21.225 234.961 19.5268C236.5 17.5606 236.15 15.1311 234.023 13.0281C232.752 11.7708 231.428 10.3383 230.084 8.76548L237.952 2.07586C238.217 1.85066 238.242 1.50705 238.012 1.25906ZM222.773 32.8119C223.131 32.6485 223.474 32.4764 223.802 32.2972V37.9298H222.773V32.8119ZM222.773 39.2067H223.802V39.8154H222.773V39.2067ZM219.251 39.2067H221.172V39.8154H219.251V39.2067ZM208.332 34.4168C208.649 34.4795 208.975 34.5356 209.308 34.5845V38.0124H208.332V34.4168ZM208.332 39.2892H209.308V39.8153H208.332V39.2892ZM205.481 39.2892H206.732V39.8153H205.481V39.2892ZM226.008 8.73243C225.999 8.72617 225.99 8.7199 225.98 8.71332C225.977 8.71129 225.974 8.70933 225.972 8.70737C225.576 8.43879 225.387 8.04718 225.452 7.63287C225.518 7.21237 225.829 6.86446 226.304 6.67841L226.353 6.65922C226.318 7.25121 226.393 8.02408 226.726 8.98434C226.469 8.95411 226.22 8.87158 226.008 8.73243ZM229.939 7.02256L228.216 8.4871C227.784 7.13203 227.98 6.30356 228.104 5.97437L230.028 5.22162C229.875 5.77171 229.796 6.40708 229.939 7.02256ZM231.55 5.65245C231.664 5.17182 231.866 4.72689 232.025 4.44005L233.787 3.75105L231.55 5.65245Z" fill="#DC83C1" stroke="#DC83C1" stroke-width="0.3"/>
<path d="M229.249 16.3645C228.71 16.7454 229.061 17.48 229.78 17.48C230.178 17.48 230.527 17.2361 230.574 16.9198C230.659 16.3488 229.791 15.9811 229.249 16.3645Z" fill="#DC83C1" stroke="#DC83C1" stroke-width="0.3"/>
<path d="M226.318 12.4941C226.273 11.9507 225.966 11.4537 225.452 11.0947C224.939 10.7357 224.282 10.5578 223.601 10.5933C222.195 10.6669 221.127 11.6396 221.219 12.7615C221.247 13.099 221.598 13.3582 222.016 13.3582C222.034 13.3582 222.052 13.3578 222.07 13.3568C222.51 13.3337 222.844 13.0297 222.816 12.6779C222.781 12.2586 223.18 11.8951 223.706 11.8676C223.96 11.8541 224.206 11.9208 224.398 12.055C224.589 12.1891 224.704 12.3749 224.721 12.578C224.75 12.9298 225.131 13.1965 225.572 13.1732C226.013 13.1499 226.347 12.846 226.318 12.4941Z" fill="#DC83C1" stroke="#DC83C1" stroke-width="0.3"/>
<path d="M238.012 55.3374C237.783 55.0894 237.364 55.0078 237.017 55.1436L226.752 59.1594V56.2157C226.752 56.0392 226.661 55.8707 226.5 55.7499C226.338 55.6292 226.121 55.5672 225.901 55.5785C225.792 55.5842 224.811 55.6508 223.812 56.2673C223.642 56.3724 223.486 56.4849 223.342 56.6031V56.4498C223.342 56.2738 223.251 56.1056 223.091 55.9849C222.93 55.8643 222.714 55.8016 222.494 55.8125C222.384 55.8178 219.955 55.9608 218.854 58.0659C217.587 58.008 214.763 58.0649 212.472 59.4546C210.699 60.5304 209.638 62.1583 209.321 64.2931C208.905 67.095 209.269 69.2579 209.535 70.8372C209.899 73.0014 209.975 73.9019 208.734 74.647C207.748 74.245 206.671 73.9853 205.569 73.8832C204.737 71.0961 202.4 69.5687 198.93 69.5687C198.488 69.5687 198.13 69.8546 198.13 70.2071C198.13 70.5597 198.488 70.8455 198.93 70.8455C200.579 70.8455 201.869 71.2667 202.763 72.0975C203.334 72.6284 203.685 73.2705 203.902 73.8509C203.034 73.8962 202.178 74.0474 201.358 74.2968C199.686 73.1499 197.744 73.036 195.966 73.9988C195.6 74.1968 195.505 74.5938 195.753 74.8856C196.001 75.1775 196.498 75.2535 196.864 75.0555C197.838 74.5282 198.804 74.4889 199.746 74.9346C199.134 75.2386 198.555 75.602 198.021 76.0205C196.319 77.3553 195.312 79.0683 195.186 80.8438C195.042 82.8552 195.915 84.8074 197.595 86.2817C196.819 87.2989 195.433 87.801 194.316 88.0471C194.942 86.9211 195.348 85.0689 194.085 82.3838C192.42 78.8449 193.003 73.3172 196.252 71.4943C196.613 71.2914 196.7 70.8932 196.446 70.6048C196.192 70.3164 195.693 70.2471 195.331 70.4498C193.435 71.5139 192.157 73.5368 191.732 76.1459C191.364 78.4112 191.683 80.911 192.588 82.8327C194.424 86.7377 192.197 88.3688 192.108 88.4317C191.848 88.6068 191.755 88.894 191.877 89.1477C191.996 89.3955 192.293 89.5582 192.624 89.5582C192.632 89.5582 192.64 89.5581 192.648 89.558C192.83 89.5537 196.832 89.431 198.788 87.1622C200.105 88.2125 203.46 88.8401 203.881 88.9296V94.5322C203.881 94.8848 204.239 95.1707 204.681 95.1707H207.532H210.108C210.55 95.1707 210.908 94.8848 210.908 94.5322V88.8384C211.636 88.8939 212.351 88.9173 213.033 88.9173C214.97 88.9173 216.647 88.7339 217.652 88.5927V94.5322C217.652 94.8848 218.01 95.1707 218.452 95.1707H224.602C225.044 95.1707 225.402 94.8848 225.402 94.5322V85.3467C226.78 84.2983 227.73 83.063 228.229 81.6703C228.351 81.3313 228.105 80.9778 227.68 80.8808C227.256 80.7839 226.813 80.98 226.691 81.3189C226.242 82.571 225.353 83.6772 224.048 84.6069C223.353 85.1025 222.528 85.5542 221.597 85.9494C221.336 86.0602 221.173 86.2771 221.173 86.5132V92.0081H219.252V84.6982C219.252 84.3456 218.893 84.0598 218.452 84.0598C218.01 84.0598 217.652 84.3457 217.652 84.6982V87.2932C216.386 87.4829 213.332 87.8437 210.222 87.4884C209.351 87.3888 208.53 87.2388 207.782 87.0423C207.363 86.9321 206.91 87.1142 206.772 87.4491C206.746 87.5128 206.733 87.5773 206.732 87.641V92.0907H205.481V88.426C205.481 88.1208 205.209 87.858 204.834 87.7994C204.825 87.798 202.096 87.1434 201.841 87.0687C200.855 86.78 199.946 86.3309 199.179 85.7495C197.527 84.4984 196.654 82.7369 196.784 80.9165C196.999 77.8947 200.385 75.2383 204.178 75.1159C204.407 75.1083 204.641 75.1089 204.871 75.1175C206.102 75.1645 207.314 75.4505 208.377 75.945C208.77 76.1279 209.145 76.3394 209.492 76.5741C210.599 77.3229 212.188 77.4644 213.444 76.9267C213.524 76.8927 213.715 76.7988 213.715 76.7988C217.01 75.1851 216.287 72.8415 215.522 70.3602C215.247 69.4661 214.962 68.5416 214.792 67.5314C214.733 67.1818 214.331 66.9365 213.893 66.9833C213.455 67.0301 213.148 67.3514 213.206 67.7008C213.387 68.7795 213.696 69.7814 213.969 70.6653C214.785 73.3122 215.079 74.6325 212.875 75.7122C212.85 75.7246 212.732 75.7822 212.689 75.8011C212.006 76.0935 211.136 76.0127 210.527 75.6005C210.404 75.517 210.276 75.4367 210.147 75.3581C211.706 74.1513 211.443 72.5816 211.121 70.6673C210.852 69.0714 210.518 67.0852 210.91 64.4438C211.174 62.6702 212.022 61.3355 213.431 60.4771C215.122 59.4472 217.263 59.3157 218.427 59.333C218.395 59.5069 218.369 59.6845 218.354 59.8687C217.775 59.9969 216.899 60.2537 216.025 60.7492C214.666 61.5205 213.045 63.0305 213.045 65.8437C213.045 66.1963 213.403 66.4821 213.845 66.4821C214.286 66.4821 214.645 66.1962 214.645 65.8437C214.645 61.5686 219.051 61.038 219.235 61.0178C219.634 60.977 219.933 60.7057 219.933 60.3845C219.933 59.8399 220.012 59.3495 220.166 58.927C220.511 57.9895 221.19 57.528 221.742 57.3018V60.1657C221.742 60.1815 221.744 60.1969 221.745 60.2124C221.743 60.2886 221.742 60.3602 221.742 60.4177C221.742 60.7703 222.1 61.0561 222.542 61.0561C222.984 61.0561 223.342 60.7702 223.342 60.4177C223.342 60.3407 223.343 60.266 223.347 60.1844C223.396 58.8495 223.861 57.8849 224.728 57.3175C224.872 57.2237 225.015 57.1486 225.152 57.0886V59.825C224.446 60.2286 223.975 60.8495 223.864 61.5526C223.733 62.3877 224.131 63.2108 224.93 63.7552C224.953 63.7714 224.975 63.7862 224.995 63.7992C225.561 64.1709 226.252 64.3533 226.943 64.3533C227.656 64.3532 228.368 64.1587 228.946 63.7789C229.067 63.9198 229.188 64.0591 229.309 64.1977C228.213 64.4735 227.448 65.3206 227.526 66.276C227.554 66.6139 227.906 66.873 228.324 66.873C228.341 66.873 228.359 66.8726 228.376 66.8717C228.817 66.8488 229.151 66.545 229.123 66.1932C229.089 65.7737 229.488 65.4097 230.014 65.382C230.146 65.3748 230.28 65.3913 230.405 65.4278C231.209 66.3123 232.002 67.1418 232.777 67.9082C233.37 68.4942 233.792 69.0976 234.042 69.699C233.967 69.7172 233.892 69.7447 233.82 69.7842C233.538 69.9402 233.414 70.231 233.512 70.493C233.611 70.7585 233.93 70.9466 234.277 70.9466C234.289 70.9466 234.3 70.9447 234.312 70.9443C234.322 71.6387 234.088 72.3108 233.604 72.9285C232.317 74.5733 229.672 75.3532 227.023 74.869C226.374 74.7502 225.731 74.5571 225.11 74.2946C219.821 72.0578 217.591 69.4275 217.269 67.712C217.022 66.4023 217.659 65.1305 219.16 63.9323C219.472 63.683 219.472 63.2788 219.16 63.0294C218.848 62.7801 218.341 62.7801 218.029 63.0294C216.148 64.53 215.36 66.1692 215.686 67.9017C216.417 71.7857 222.511 74.6405 224.361 75.4231C224.954 75.6738 225.567 75.8713 226.189 76.0143C226.564 76.7404 226.977 77.814 227.026 79.0853C227.04 79.431 227.395 79.704 227.826 79.704C227.834 79.704 227.842 79.7039 227.851 79.7037C228.293 79.6928 228.639 79.3981 228.626 79.0457C228.584 77.975 228.318 77.0284 228.01 76.2718C228.201 76.2821 228.391 76.2878 228.58 76.2878C231.206 76.2877 233.632 75.3034 234.961 73.6052C236.5 71.6389 236.15 69.2094 234.023 67.1065C232.752 65.8491 231.428 64.4167 230.084 62.8438L237.952 56.1542C238.217 55.929 238.242 55.5854 238.012 55.3374ZM222.773 86.8903C223.131 86.7269 223.474 86.5548 223.802 86.3756V92.0081H222.773V86.8903ZM222.773 93.2851H223.802V93.8937H222.773V93.2851ZM219.251 93.2851H221.172V93.8937H219.251V93.2851ZM208.332 88.4951C208.649 88.5579 208.975 88.614 209.308 88.6629V92.0908H208.332V88.4951ZM208.332 93.3676H209.308V93.8937H208.332V93.3676ZM205.481 93.3676H206.732V93.8937H205.481V93.3676ZM226.008 62.8108C225.999 62.8045 225.99 62.7983 225.98 62.7917C225.977 62.7897 225.974 62.7877 225.972 62.7857C225.576 62.5172 225.387 62.1256 225.452 61.7112C225.518 61.2907 225.829 60.9428 226.304 60.7568L226.353 60.7376C226.318 61.3296 226.393 62.1025 226.726 63.0627C226.469 63.0325 226.22 62.9499 226.008 62.8108ZM229.939 61.1009L228.216 62.5655C227.784 61.2104 227.98 60.3819 228.104 60.0527L230.028 59.3C229.875 59.8501 229.796 60.4854 229.939 61.1009ZM231.55 59.7308C231.664 59.2502 231.866 58.8053 232.025 58.5184L233.787 57.8294L231.55 59.7308Z" fill="#DC83C1" stroke="#DC83C1" stroke-width="0.3"/>
<path d="M229.249 70.4429C228.71 70.8237 229.061 71.5583 229.78 71.5583C230.178 71.5583 230.527 71.3144 230.574 70.9981C230.659 70.4272 229.791 70.0595 229.249 70.4429Z" fill="#DC83C1" stroke="#DC83C1" stroke-width="0.3"/>
<path d="M226.318 66.5724C226.273 66.029 225.966 65.5321 225.452 65.1732C224.939 64.8143 224.282 64.6365 223.601 64.6719C222.195 64.7455 221.127 65.7181 221.219 66.8397C221.247 67.1772 221.598 67.4363 222.016 67.4363C222.034 67.4363 222.052 67.4359 222.07 67.4349C222.51 67.4119 222.844 67.1079 222.816 66.7562C222.781 66.3369 223.18 65.9735 223.706 65.946C223.96 65.9325 224.206 65.9991 224.398 66.1333C224.589 66.2674 224.704 66.4532 224.721 66.6562C224.75 67.008 225.131 67.2746 225.572 67.2514C226.013 67.2281 226.347 66.9242 226.318 66.5724Z" fill="#DC83C1" stroke="#DC83C1" stroke-width="0.3"/>
<path d="M301.54 1.25906C301.31 1.01107 300.891 0.929475 300.544 1.06526L290.28 5.08106V2.13733C290.28 1.96083 290.188 1.79232 290.027 1.67157C289.866 1.55083 289.648 1.48881 289.428 1.50016C289.32 1.5058 288.339 1.57244 287.34 2.18894C287.17 2.29402 287.014 2.40655 286.869 2.52471V2.37139C286.869 2.19543 286.778 2.02724 286.618 1.90657C286.457 1.78598 286.241 1.72325 286.022 1.73414C285.911 1.73939 283.483 1.88245 282.381 3.98753C281.114 3.92958 278.29 3.98651 276 5.37619C274.226 6.45203 273.166 8.07991 272.848 10.2147C272.432 13.0166 272.796 15.1795 273.062 16.7588C273.427 18.923 273.502 19.8236 272.262 20.5687C271.276 20.1666 270.199 19.9069 269.096 19.8048C268.265 17.0177 265.927 15.4903 262.458 15.4903C262.016 15.4903 261.658 15.7762 261.658 16.1287C261.658 16.4814 262.016 16.7672 262.458 16.7672C264.107 16.7672 265.396 17.1884 266.29 18.0191C266.861 18.55 267.213 19.1921 267.429 19.7725C266.561 19.8179 265.706 19.969 264.885 20.2185C263.214 19.0715 261.272 18.9576 259.493 19.9204C259.127 20.1184 259.032 20.5154 259.28 20.8072C259.528 21.0991 260.026 21.1751 260.391 20.9772C261.366 20.4498 262.331 20.4106 263.274 20.8563C262.661 21.1603 262.082 21.5236 261.548 21.9421C259.847 23.2769 258.84 24.9899 258.714 26.7654C258.57 28.7768 259.442 30.729 261.123 32.2033C260.347 33.2205 258.96 33.7226 257.844 33.9687C258.469 32.8428 258.876 30.9905 257.613 28.3054C255.948 24.7665 256.531 19.2388 259.779 17.4159C260.14 17.213 260.227 16.8149 259.973 16.5265C259.719 16.238 259.22 16.1688 258.859 16.3714C256.963 17.4355 255.685 19.4584 255.26 22.0676C254.891 24.3329 255.211 26.8326 256.115 28.7544C257.952 32.6594 255.725 34.2904 255.636 34.3533C255.376 34.5284 255.283 34.8157 255.404 35.0694C255.523 35.3171 255.821 35.4798 256.151 35.4798C256.159 35.4798 256.167 35.4798 256.175 35.4796C256.357 35.4753 260.36 35.3527 262.316 33.0838C263.632 34.1342 266.988 34.7617 267.408 34.8512V40.4539C267.408 40.8065 267.767 41.0923 268.208 41.0923H271.06H273.636C274.077 41.0923 274.436 40.8064 274.436 40.4539V34.7601C275.164 34.8155 275.878 34.8389 276.561 34.8389C278.497 34.8389 280.174 34.6555 281.179 34.5143V40.4539C281.179 40.8065 281.537 41.0923 281.979 41.0923H288.13C288.571 41.0923 288.929 40.8064 288.929 40.4539V31.2684C290.307 30.2199 291.257 28.9846 291.757 27.5919C291.878 27.2529 291.633 26.8994 291.208 26.8025C290.783 26.7055 290.34 26.9016 290.219 27.2406C289.77 28.4927 288.88 29.5988 287.575 30.5285C286.88 31.0241 286.056 31.4758 285.125 31.8711C284.864 31.9819 284.7 32.1987 284.7 32.4348V37.9297H282.779V30.6198C282.779 30.2672 282.421 29.9814 281.979 29.9814C281.537 29.9814 281.179 30.2673 281.179 30.6198V33.2149C279.913 33.4045 276.859 33.7654 273.749 33.41C272.878 33.3105 272.058 33.1604 271.31 32.964C270.89 32.8537 270.438 33.0359 270.3 33.3708C270.273 33.4344 270.261 33.499 270.26 33.5626V38.0123H269.008V34.3476C269.008 34.0424 268.737 33.7797 268.361 33.721C268.352 33.7196 265.624 33.0651 265.369 32.9903C264.382 32.7017 263.473 32.2526 262.707 31.6712C261.054 30.42 260.181 28.6585 260.311 26.8382C260.527 23.8164 263.912 21.1599 267.706 21.0375C267.935 21.03 268.168 21.0305 268.398 21.0391C269.63 21.0861 270.842 21.3721 271.904 21.8666C272.298 22.0495 272.673 22.2611 273.019 22.4957C274.127 23.2446 275.715 23.3861 276.972 22.8484C277.051 22.8144 277.242 22.7205 277.242 22.7205C280.537 21.1068 279.815 18.7631 279.05 16.2818C278.774 15.3877 278.489 14.4632 278.319 13.453C278.261 13.1034 277.859 12.8582 277.42 12.9049C276.983 12.9518 276.675 13.273 276.734 13.6224C276.915 14.7012 277.224 15.703 277.496 16.5869C278.312 19.2339 278.607 20.5541 276.402 21.6338C276.377 21.6462 276.259 21.7038 276.216 21.7227C275.533 22.0151 274.664 21.9344 274.054 21.5221C273.931 21.4386 273.804 21.3583 273.675 21.2797C275.233 20.0729 274.971 18.5033 274.648 16.5889C274.379 14.993 274.045 13.0068 274.437 10.3654C274.701 8.59179 275.549 7.25716 276.959 6.39878C278.649 5.36883 280.79 5.23736 281.955 5.25466C281.923 5.4285 281.897 5.60617 281.882 5.79035C281.302 5.91853 280.426 6.17537 279.553 6.67081C278.193 7.44212 276.572 8.95216 276.572 11.7653C276.572 12.118 276.93 12.4038 277.372 12.4038C277.814 12.4038 278.172 12.1179 278.172 11.7653C278.172 7.4902 282.578 6.9596 282.762 6.9394C283.162 6.8986 283.461 6.62735 283.461 6.30614C283.461 5.76153 283.539 5.27111 283.694 4.84865C284.038 3.91118 284.717 3.44965 285.27 3.22343V6.08736C285.27 6.1031 285.271 6.11853 285.273 6.13403C285.27 6.21022 285.27 6.28187 285.27 6.33935C285.27 6.69195 285.628 6.97777 286.07 6.97777C286.512 6.97777 286.87 6.69188 286.87 6.33935C286.87 6.26229 286.87 6.18767 286.875 6.10607C286.924 4.77113 287.388 3.80656 288.256 3.23909C288.399 3.14536 288.543 3.07026 288.68 3.0102V5.74665C287.973 6.15024 287.502 6.77112 287.392 7.47422C287.261 8.30935 287.659 9.13241 288.457 9.67687C288.48 9.693 288.502 9.70788 288.522 9.7208C289.088 10.0925 289.779 10.2749 290.47 10.2749C291.183 10.2748 291.896 10.0803 292.474 9.70052C292.595 9.84139 292.716 9.98077 292.837 10.1194C291.74 10.3952 290.976 11.2422 291.054 12.1977C291.081 12.5355 291.433 12.7947 291.851 12.7947C291.869 12.7947 291.886 12.7943 291.904 12.7933C292.345 12.7705 292.679 12.4666 292.65 12.1148C292.616 11.6953 293.016 11.3314 293.542 11.3036C293.674 11.2965 293.807 11.3129 293.932 11.3495C294.737 12.2339 295.53 13.0634 296.305 13.8299C296.897 14.4158 297.32 15.0192 297.57 15.6206C297.494 15.6389 297.419 15.6664 297.348 15.7058C297.065 15.8618 296.941 16.1526 297.039 16.4146C297.139 16.6802 297.457 16.8683 297.805 16.8683C297.817 16.8683 297.828 16.8663 297.84 16.8659C297.849 17.5603 297.615 18.2324 297.132 18.8502C295.844 20.4949 293.199 21.2748 290.55 20.7906C289.902 20.6719 289.258 20.4787 288.637 20.2163C283.348 17.9794 281.119 15.3491 280.796 13.6336C280.55 12.3239 281.186 11.0521 282.688 9.85392C283 9.60459 283 9.20038 282.688 8.95106C282.375 8.70174 281.868 8.70174 281.556 8.95106C279.676 10.4516 278.888 12.0908 279.214 13.8233C279.945 17.7073 286.038 20.5622 287.888 21.3447C288.481 21.5955 289.094 21.793 289.716 21.9359C290.091 22.6621 290.505 23.7356 290.554 25.0069C290.567 25.3526 290.923 25.6256 291.353 25.6256C291.361 25.6256 291.37 25.6255 291.378 25.6253C291.82 25.6144 292.167 25.3197 292.153 24.9674C292.112 23.8966 291.846 22.9501 291.538 22.1934C291.728 22.2037 291.919 22.2094 292.107 22.2094C294.734 22.2093 297.159 21.225 298.489 19.5268C300.028 17.5606 299.677 15.1311 297.55 13.0281C296.279 11.7708 294.956 10.3383 293.611 8.76548L301.48 2.07586C301.744 1.85066 301.769 1.50705 301.54 1.25906ZM286.3 32.8119C286.659 32.6485 287.001 32.4764 287.329 32.2972V37.9298H286.3V32.8119ZM286.3 39.2067H287.329V39.8154H286.3V39.2067ZM282.779 39.2067H284.7V39.8154H282.779V39.2067ZM271.859 34.4168C272.177 34.4795 272.502 34.5356 272.835 34.5845V38.0124H271.859V34.4168ZM271.859 39.2892H272.835V39.8153H271.859V39.2892ZM269.008 39.2892H270.259V39.8153H269.008V39.2892ZM289.535 8.73243C289.526 8.72617 289.517 8.7199 289.508 8.71332C289.505 8.71129 289.502 8.70933 289.499 8.70737C289.104 8.43879 288.914 8.04718 288.979 7.63287C289.046 7.21237 289.356 6.86446 289.832 6.67841L289.881 6.65922C289.845 7.25121 289.921 8.02408 290.253 8.98434C289.996 8.95411 289.748 8.87158 289.535 8.73243ZM293.466 7.02256L291.743 8.4871C291.312 7.13203 291.507 6.30356 291.632 5.97437L293.556 5.22162C293.402 5.77171 293.323 6.40708 293.466 7.02256ZM295.078 5.65245C295.191 5.17182 295.394 4.72689 295.553 4.44005L297.314 3.75105L295.078 5.65245Z" fill="#DC83C1" stroke="#DC83C1" stroke-width="0.3"/>
<path d="M292.776 16.3645C292.238 16.7454 292.589 17.48 293.308 17.48C293.706 17.48 294.054 17.2361 294.101 16.9198C294.186 16.3488 293.319 15.9811 292.776 16.3645Z" fill="#DC83C1" stroke="#DC83C1" stroke-width="0.3"/>
<path d="M289.845 12.4941C289.8 11.9507 289.493 11.4537 288.98 11.0947C288.466 10.7357 287.809 10.5578 287.128 10.5933C285.722 10.6669 284.654 11.6396 284.746 12.7615C284.774 13.099 285.126 13.3582 285.544 13.3582C285.561 13.3582 285.579 13.3578 285.597 13.3568C286.038 13.3337 286.372 13.0297 286.343 12.6779C286.308 12.2586 286.708 11.8951 287.233 11.8676C287.487 11.8541 287.733 11.9208 287.925 12.055C288.117 12.1891 288.231 12.3749 288.248 12.578C288.277 12.9298 288.658 13.1965 289.099 13.1732C289.54 13.1499 289.874 12.846 289.845 12.4941Z" fill="#DC83C1" stroke="#DC83C1" stroke-width="0.3"/>
<path d="M301.54 55.3374C301.31 55.0894 300.891 55.0078 300.544 55.1436L290.28 59.1594V56.2157C290.28 56.0392 290.188 55.8707 290.027 55.7499C289.866 55.6292 289.648 55.5672 289.428 55.5785C289.32 55.5842 288.339 55.6508 287.34 56.2673C287.17 56.3724 287.014 56.4849 286.869 56.6031V56.4498C286.869 56.2738 286.778 56.1056 286.618 55.9849C286.457 55.8643 286.241 55.8016 286.022 55.8125C285.911 55.8178 283.483 55.9608 282.381 58.0659C281.114 58.008 278.29 58.0649 276 59.4546C274.226 60.5304 273.166 62.1583 272.848 64.2931C272.432 67.095 272.796 69.2579 273.062 70.8372C273.427 73.0014 273.502 73.9019 272.262 74.647C271.276 74.245 270.199 73.9853 269.096 73.8832C268.265 71.0961 265.927 69.5687 262.458 69.5687C262.016 69.5687 261.658 69.8546 261.658 70.2071C261.658 70.5597 262.016 70.8455 262.458 70.8455C264.107 70.8455 265.396 71.2667 266.29 72.0975C266.861 72.6284 267.213 73.2705 267.429 73.8509C266.561 73.8962 265.706 74.0474 264.885 74.2968C263.214 73.1499 261.272 73.036 259.493 73.9988C259.127 74.1968 259.032 74.5938 259.28 74.8856C259.528 75.1775 260.026 75.2535 260.391 75.0555C261.366 74.5282 262.331 74.4889 263.274 74.9346C262.661 75.2386 262.082 75.602 261.548 76.0205C259.847 77.3553 258.84 79.0683 258.714 80.8438C258.57 82.8552 259.442 84.8074 261.123 86.2817C260.347 87.2989 258.96 87.801 257.844 88.0471C258.469 86.9211 258.876 85.0689 257.613 82.3838C255.948 78.8449 256.531 73.3172 259.779 71.4943C260.14 71.2914 260.227 70.8932 259.973 70.6048C259.719 70.3164 259.22 70.2471 258.859 70.4498C256.963 71.5139 255.685 73.5368 255.26 76.1459C254.891 78.4112 255.211 80.911 256.115 82.8327C257.952 86.7377 255.725 88.3688 255.636 88.4317C255.376 88.6068 255.283 88.894 255.404 89.1477C255.523 89.3955 255.821 89.5582 256.151 89.5582C256.159 89.5582 256.167 89.5581 256.175 89.558C256.357 89.5537 260.36 89.431 262.316 87.1622C263.632 88.2125 266.988 88.8401 267.408 88.9296V94.5322C267.408 94.8848 267.767 95.1707 268.208 95.1707H271.06H273.636C274.077 95.1707 274.436 94.8848 274.436 94.5322V88.8384C275.164 88.8939 275.878 88.9173 276.561 88.9173C278.497 88.9173 280.174 88.7339 281.179 88.5927V94.5322C281.179 94.8848 281.537 95.1707 281.979 95.1707H288.13C288.571 95.1707 288.929 94.8848 288.929 94.5322V85.3467C290.307 84.2983 291.257 83.063 291.757 81.6703C291.878 81.3313 291.633 80.9778 291.208 80.8808C290.783 80.7839 290.34 80.98 290.219 81.3189C289.77 82.571 288.88 83.6772 287.575 84.6069C286.88 85.1025 286.056 85.5542 285.125 85.9494C284.864 86.0602 284.7 86.2771 284.7 86.5132V92.0081H282.779V84.6982C282.779 84.3456 282.421 84.0598 281.979 84.0598C281.537 84.0598 281.179 84.3457 281.179 84.6982V87.2932C279.913 87.4829 276.859 87.8437 273.749 87.4884C272.878 87.3888 272.058 87.2388 271.31 87.0423C270.89 86.9321 270.438 87.1142 270.3 87.4491C270.273 87.5128 270.261 87.5773 270.26 87.641V92.0907H269.008V88.426C269.008 88.1208 268.737 87.858 268.361 87.7994C268.352 87.798 265.624 87.1434 265.369 87.0687C264.382 86.78 263.473 86.3309 262.707 85.7495C261.054 84.4984 260.181 82.7369 260.311 80.9165C260.527 77.8947 263.912 75.2383 267.706 75.1159C267.935 75.1083 268.168 75.1089 268.398 75.1175C269.63 75.1645 270.842 75.4505 271.904 75.945C272.298 76.1279 272.673 76.3394 273.019 76.5741C274.127 77.3229 275.715 77.4644 276.972 76.9267C277.051 76.8927 277.242 76.7988 277.242 76.7988C280.537 75.1851 279.815 72.8415 279.05 70.3602C278.774 69.4661 278.489 68.5416 278.319 67.5314C278.261 67.1818 277.859 66.9365 277.42 66.9833C276.983 67.0301 276.675 67.3514 276.734 67.7008C276.915 68.7795 277.224 69.7814 277.496 70.6653C278.312 73.3122 278.607 74.6325 276.402 75.7122C276.377 75.7246 276.259 75.7822 276.216 75.8011C275.533 76.0935 274.664 76.0127 274.054 75.6005C273.931 75.517 273.804 75.4367 273.675 75.3581C275.233 74.1513 274.971 72.5816 274.648 70.6673C274.379 69.0714 274.045 67.0852 274.437 64.4438C274.701 62.6702 275.549 61.3355 276.959 60.4771C278.649 59.4472 280.79 59.3157 281.955 59.333C281.923 59.5069 281.897 59.6845 281.882 59.8687C281.302 59.9969 280.426 60.2537 279.553 60.7492C278.193 61.5205 276.572 63.0305 276.572 65.8437C276.572 66.1963 276.93 66.4821 277.372 66.4821C277.814 66.4821 278.172 66.1962 278.172 65.8437C278.172 61.5686 282.578 61.038 282.762 61.0178C283.162 60.977 283.461 60.7057 283.461 60.3845C283.461 59.8399 283.539 59.3495 283.694 58.927C284.038 57.9895 284.717 57.528 285.27 57.3018V60.1657C285.27 60.1815 285.271 60.1969 285.273 60.2124C285.27 60.2886 285.27 60.3602 285.27 60.4177C285.27 60.7703 285.628 61.0561 286.07 61.0561C286.512 61.0561 286.87 60.7702 286.87 60.4177C286.87 60.3407 286.87 60.266 286.875 60.1844C286.924 58.8495 287.388 57.8849 288.256 57.3175C288.399 57.2237 288.543 57.1486 288.68 57.0886V59.825C287.973 60.2286 287.502 60.8495 287.392 61.5526C287.261 62.3877 287.659 63.2108 288.457 63.7552C288.48 63.7714 288.502 63.7862 288.522 63.7992C289.088 64.1709 289.779 64.3533 290.47 64.3533C291.183 64.3532 291.896 64.1587 292.474 63.7789C292.595 63.9198 292.716 64.0591 292.837 64.1977C291.74 64.4735 290.976 65.3206 291.054 66.276C291.081 66.6139 291.433 66.873 291.851 66.873C291.869 66.873 291.886 66.8726 291.904 66.8717C292.345 66.8488 292.679 66.545 292.65 66.1932C292.616 65.7737 293.016 65.4097 293.542 65.382C293.674 65.3748 293.807 65.3913 293.932 65.4278C294.737 66.3123 295.53 67.1418 296.305 67.9082C296.897 68.4942 297.32 69.0976 297.57 69.699C297.494 69.7172 297.419 69.7447 297.348 69.7842C297.065 69.9402 296.941 70.231 297.039 70.493C297.139 70.7585 297.457 70.9466 297.805 70.9466C297.817 70.9466 297.828 70.9447 297.84 70.9443C297.849 71.6387 297.615 72.3108 297.132 72.9285C295.844 74.5733 293.199 75.3532 290.55 74.869C289.902 74.7502 289.258 74.5571 288.637 74.2946C283.348 72.0578 281.119 69.4275 280.796 67.712C280.55 66.4023 281.186 65.1305 282.688 63.9323C283 63.683 283 63.2788 282.688 63.0294C282.375 62.7801 281.868 62.7801 281.556 63.0294C279.676 64.53 278.888 66.1692 279.214 67.9017C279.945 71.7857 286.038 74.6405 287.888 75.4231C288.481 75.6738 289.094 75.8713 289.716 76.0143C290.091 76.7404 290.505 77.814 290.554 79.0853C290.567 79.431 290.923 79.704 291.353 79.704C291.361 79.704 291.37 79.7039 291.378 79.7037C291.82 79.6928 292.167 79.3981 292.153 79.0457C292.112 77.975 291.846 77.0284 291.538 76.2718C291.728 76.2821 291.919 76.2878 292.107 76.2878C294.734 76.2877 297.159 75.3034 298.489 73.6052C300.028 71.6389 299.677 69.2094 297.55 67.1065C296.279 65.8491 294.956 64.4167 293.611 62.8438L301.48 56.1542C301.744 55.929 301.769 55.5854 301.54 55.3374ZM286.3 86.8903C286.659 86.7269 287.001 86.5548 287.329 86.3756V92.0081H286.3V86.8903ZM286.3 93.2851H287.329V93.8937H286.3V93.2851ZM282.779 93.2851H284.7V93.8937H282.779V93.2851ZM271.859 88.4951C272.177 88.5579 272.502 88.614 272.835 88.6629V92.0908H271.859V88.4951ZM271.859 93.3676H272.835V93.8937H271.859V93.3676ZM269.008 93.3676H270.259V93.8937H269.008V93.3676ZM289.535 62.8108C289.526 62.8045 289.517 62.7983 289.508 62.7917C289.505 62.7897 289.502 62.7877 289.499 62.7857C289.104 62.5172 288.914 62.1256 288.979 61.7112C289.046 61.2907 289.356 60.9428 289.832 60.7568L289.881 60.7376C289.845 61.3296 289.921 62.1025 290.253 63.0627C289.996 63.0325 289.748 62.9499 289.535 62.8108ZM293.466 61.1009L291.743 62.5655C291.312 61.2104 291.507 60.3819 291.632 60.0527L293.556 59.3C293.402 59.8501 293.323 60.4854 293.466 61.1009ZM295.078 59.7308C295.191 59.2502 295.394 58.8053 295.553 58.5184L297.314 57.8294L295.078 59.7308Z" fill="#DC83C1" stroke="#DC83C1" stroke-width="0.3"/>
<path d="M292.776 70.4429C292.238 70.8237 292.589 71.5583 293.308 71.5583C293.706 71.5583 294.054 71.3144 294.101 70.9981C294.186 70.4272 293.319 70.0595 292.776 70.4429Z" fill="#DC83C1" stroke="#DC83C1" stroke-width="0.3"/>
<path d="M289.845 66.5724C289.8 66.029 289.493 65.5321 288.98 65.1732C288.466 64.8143 287.809 64.6365 287.128 64.6719C285.722 64.7455 284.654 65.7181 284.746 66.8397C284.774 67.1772 285.126 67.4363 285.544 67.4363C285.561 67.4363 285.579 67.4359 285.597 67.4349C286.038 67.4119 286.372 67.1079 286.343 66.7562C286.308 66.3369 286.708 65.9735 287.233 65.946C287.487 65.9325 287.733 65.9991 287.925 66.1333C288.117 66.2674 288.231 66.4532 288.248 66.6562C288.277 67.008 288.658 67.2746 289.099 67.2514C289.54 67.2281 289.874 66.9242 289.845 66.5724Z" fill="#DC83C1" stroke="#DC83C1" stroke-width="0.3"/>
</svg>
