<svg width="223" height="161" viewBox="0 0 223 161" fill="none" xmlns="http://www.w3.org/2000/svg">
<path opacity="0.31" d="M51.2758 85.0205C51.8662 82.5271 50.3171 80.0288 47.8157 79.4403C45.3144 78.8518 42.8081 80.396 42.2178 82.8894C41.6274 85.3828 43.1765 87.8811 45.6778 88.4696C48.1792 89.0581 50.6855 87.5139 51.2758 85.0205Z" fill="#FCE481"/>
<path d="M44.001 86.7855C44.814 83.4892 47.7642 83.3301 47.7642 83.3301C46.4599 86.0894 48.4251 87.6829 47.7892 88.6425C46.9612 89.9028 43.1955 90.0868 44.001 86.7855Z" fill="url(#paint0_linear)"/>
<path d="M47.2354 90.9844C47.2953 91.0117 47.2928 91.7998 47.2479 93.0775L43.3426 96.8064H43.2179C43.2503 96.1128 43.2877 95.4615 43.3276 94.8674L47.2354 90.9844Z" fill="#A2E7DD"/>
<path d="M47.2354 90.9842L43.3401 94.8722C43.4698 92.7716 43.6169 91.3471 43.794 91.2203C44.5247 90.6933 46.9038 90.8325 47.2354 90.9842Z" fill="#EFEFEF"/>
<path d="M43.3427 96.8163L47.248 93.0874C47.2206 93.95 47.1707 95.0339 47.1133 96.2569L43.0808 100.11C43.1207 98.9566 43.1656 97.8454 43.218 96.8237L43.3427 96.8163Z" fill="white"/>
<path d="M43.0808 100.098L47.1133 96.2444C47.0784 96.9902 47.031 97.7931 46.9861 98.6209L43.1781 102.263H43.006C43.0309 101.524 43.0509 100.804 43.0808 100.098Z" fill="#A2E7DD"/>
<path d="M43.1781 102.263L46.9862 98.6211C46.9138 99.9585 46.8315 101.378 46.7492 102.797L42.8938 106.489C42.9262 105.107 42.9611 103.672 43.0085 102.263H43.1781Z" fill="white"/>
<path d="M42.8937 106.489L46.7517 102.797C46.7018 103.61 46.6544 104.428 46.602 105.226L42.8339 108.836C42.8488 108.085 42.8638 107.297 42.8937 106.489Z" fill="#A2E7DD"/>
<path d="M42.8314 108.836L46.5995 105.226C46.5098 106.787 46.41 108.296 46.3277 109.634L44.4673 111.928C43.9162 111.928 43.3227 113.007 42.7466 113.067C42.7466 113.067 42.8064 109.805 42.8314 108.836Z" fill="white"/>
<path d="M45.9462 111.287L42.7192 114.431L42.7042 115.152C43.7466 114.732 44.8732 114.562 45.9936 114.655L46.243 111.058C46.1507 111.038 46.0335 111.292 45.9462 111.287Z" fill="white"/>
<path d="M44.4673 111.421L42.7466 113.067C42.7466 113.641 42.7242 114.126 42.7167 114.508L46.2305 111.185C46.2629 110.7 46.2903 110.19 46.3277 109.634L44.4673 111.421Z" fill="#A2E7DD"/>
<path d="M41.5571 115.669C41.981 115.377 42.4391 115.136 42.9212 114.953C43.4034 114.765 43.9053 114.631 44.4175 114.553C44.9361 114.473 45.4637 114.469 45.9836 114.541C46.5079 114.609 47.0119 114.787 47.4624 115.063C47.4804 115.074 47.496 115.089 47.5082 115.106C47.5205 115.123 47.5292 115.142 47.5339 115.163C47.5385 115.184 47.539 115.205 47.5353 115.226C47.5316 115.247 47.5238 115.266 47.5123 115.284C47.4926 115.315 47.4633 115.338 47.429 115.35C47.3947 115.362 47.3574 115.362 47.3228 115.351C46.8734 115.195 46.4041 115.103 45.9287 115.078C45.4537 115.052 44.9772 115.076 44.5073 115.15C44.0309 115.225 43.5602 115.332 43.0983 115.471C42.6369 115.607 42.1656 115.769 41.7167 115.948C41.6803 115.961 41.6404 115.96 41.6044 115.946C41.5684 115.932 41.5385 115.906 41.5202 115.872C41.5018 115.838 41.4962 115.799 41.5044 115.761C41.5125 115.724 41.5338 115.69 41.5646 115.667L41.5571 115.669Z" fill="#BC4B66"/>
<path d="M45.3003 90.7979C45.1651 90.5104 45.0662 90.2073 45.006 89.8955C44.941 89.5841 44.9109 89.2665 44.9163 88.9484C44.9188 88.6212 44.9701 88.2961 45.0684 87.9839C45.1666 87.6603 45.347 87.3674 45.5921 87.1337C45.6197 87.1101 45.6545 87.0965 45.6908 87.0953C45.7272 87.0941 45.7628 87.1053 45.7919 87.127C45.821 87.1488 45.8418 87.1798 45.8508 87.2149C45.8598 87.25 45.8565 87.2871 45.8415 87.3201V87.3326C45.7237 87.5822 45.6398 87.8464 45.5921 88.1181C45.5448 88.3949 45.5214 88.6751 45.5223 88.9559C45.5223 89.2417 45.5223 89.5301 45.5497 89.8234L45.6095 90.7084C45.6112 90.7297 45.6086 90.7511 45.6018 90.7714C45.595 90.7917 45.5842 90.8104 45.57 90.8264C45.5558 90.8424 45.5385 90.8554 45.5192 90.8646C45.4998 90.8738 45.4788 90.879 45.4574 90.8799C45.4261 90.8827 45.3947 90.8764 45.3668 90.8618C45.339 90.8473 45.3159 90.8251 45.3003 90.7979V90.7979Z" fill="#221A17"/>
<path opacity="0.31" d="M63.2073 82.0903C63.7977 79.5969 62.2486 77.0986 59.7472 76.5101C57.2459 75.9216 54.7396 77.4658 54.1493 79.9592C53.5589 82.4526 55.108 84.9509 57.6094 85.5394C60.1107 86.1279 62.617 84.5837 63.2073 82.0903Z" fill="#FCE481"/>
<path d="M55.9315 83.857C56.7444 80.5607 59.6921 80.4016 59.6921 80.4016C58.3879 83.161 60.3555 84.7544 59.7196 85.714C58.8916 86.9743 55.126 87.1583 55.9315 83.857Z" fill="url(#paint1_linear)"/>
<path d="M59.1659 88.0535C59.2257 88.0808 59.2232 88.8664 59.1783 90.1441L55.273 93.8879H55.1483C55.1807 93.1943 55.2181 92.543 55.258 91.9489L59.1659 88.0535Z" fill="#A2E7DD"/>
<path d="M59.166 88.0534L55.2706 91.9413C55.4003 89.8383 55.5474 88.4163 55.7245 88.2895C56.4552 87.765 58.8343 87.9042 59.166 88.0534Z" fill="#EFEFEF"/>
<path d="M55.2731 93.8878L59.1784 90.144C59.151 91.0091 59.1011 92.0905 59.0437 93.3161L55.0112 97.1692C55.0486 96.0158 55.096 94.9021 55.1484 93.8829L55.2731 93.8878Z" fill="white"/>
<path d="M55.0112 97.1691L59.0437 93.3159C59.0088 94.0617 58.9614 94.8622 58.9166 95.6925L55.1135 99.3343H54.9414C54.9614 98.596 54.9813 97.8726 55.0112 97.1691Z" fill="#A2E7DD"/>
<path d="M55.1135 99.3345L58.9216 95.6926C58.8492 97.03 58.767 98.4495 58.6847 99.869L54.8242 103.561C54.8591 102.178 54.894 100.744 54.9414 99.3345H55.1135Z" fill="white"/>
<path d="M54.8192 103.56L58.6796 99.8689C58.6298 100.679 58.5824 101.497 58.53 102.298L54.7618 105.9C54.7793 105.154 54.7943 104.368 54.8192 103.56Z" fill="#A2E7DD"/>
<path d="M54.7618 105.9L58.5299 102.29C58.4402 103.851 58.3404 105.36 58.2581 106.698L56.3977 108.992C55.8466 108.992 55.2531 110.071 54.677 110.131C54.677 110.138 54.7369 106.874 54.7618 105.9Z" fill="white"/>
<path d="M57.8766 108.358L54.6496 111.503L54.6346 112.221C55.6777 111.804 56.8037 111.634 57.924 111.724L58.1734 108.13C58.0811 108.107 57.9639 108.363 57.8766 108.358Z" fill="white"/>
<path d="M56.3978 108.49L54.677 110.138C54.6646 110.712 54.6546 111.197 54.6471 111.58L58.1584 108.256C58.1933 107.759 58.2207 107.262 58.2581 106.705L56.3978 108.49Z" fill="#A2E7DD"/>
<path d="M53.4876 112.741C53.9115 112.448 54.3696 112.208 54.8517 112.025C55.3336 111.835 55.8356 111.701 56.348 111.625C56.8681 111.549 57.3965 111.549 57.9166 111.625C58.4401 111.693 58.9433 111.871 59.3929 112.147C59.4111 112.158 59.4269 112.172 59.4394 112.189C59.4519 112.206 59.4609 112.226 59.4658 112.246C59.4706 112.267 59.4713 112.288 59.4678 112.309C59.4643 112.33 59.4566 112.35 59.4453 112.368C59.4256 112.399 59.3963 112.422 59.362 112.434C59.3277 112.446 59.2904 112.446 59.2558 112.435C58.8056 112.278 58.3354 112.186 57.8592 112.162C57.385 112.135 56.9093 112.159 56.4402 112.234C55.9639 112.309 55.4932 112.416 55.0312 112.554C54.5699 112.691 54.0985 112.853 53.6497 113.032C53.6132 113.045 53.5734 113.044 53.5374 113.03C53.5014 113.016 53.4715 112.99 53.4532 112.956C53.4348 112.922 53.4292 112.883 53.4374 112.845C53.4455 112.808 53.4668 112.774 53.4975 112.751L53.4876 112.741Z" fill="#BC4B66"/>
<path d="M57.2307 87.8671C57.0951 87.5806 56.9963 87.2783 56.9365 86.9672C56.8751 86.6528 56.8491 86.3327 56.8591 86.0126C56.8605 85.6844 56.9118 85.3584 57.0113 85.0456C57.1105 84.7224 57.2908 84.4298 57.535 84.1954C57.55 84.1803 57.5679 84.1684 57.5876 84.1603C57.6073 84.1521 57.6284 84.1479 57.6497 84.1479C57.671 84.1479 57.6921 84.1521 57.7118 84.1603C57.7315 84.1684 57.7494 84.1803 57.7644 84.1954C57.7858 84.2189 57.7996 84.2484 57.804 84.2798C57.8084 84.3113 57.8033 84.3433 57.7893 84.3719V84.3719C57.6712 84.6205 57.5873 84.8839 57.54 85.1549C57.4927 85.4325 57.4693 85.7136 57.4701 85.9952C57.4701 86.2811 57.4701 86.5694 57.4976 86.8628L57.5574 87.7477C57.5595 87.7907 57.5449 87.8328 57.5165 87.8653C57.4881 87.8977 57.4483 87.918 57.4053 87.9218C57.3741 87.9312 57.3407 87.9311 57.3095 87.9213C57.2784 87.9116 57.2509 87.8926 57.2307 87.8671V87.8671Z" fill="#221A17"/>
<path opacity="0.31" d="M29.2944 86.6194C29.8847 84.126 28.3356 81.6276 25.8343 81.0391C23.333 80.4507 20.8267 81.9949 20.2363 84.4883C19.6459 86.9816 21.1951 89.48 23.6964 90.0685C26.1977 90.657 28.704 89.1128 29.2944 86.6194Z" fill="#FCE481"/>
<path d="M22.0156 88.3841C22.8286 85.0878 25.7787 84.9287 25.7787 84.9287C24.4745 87.6881 26.4396 89.2815 25.8037 90.2411C24.9757 91.5014 21.2101 91.6854 22.0156 88.3841Z" fill="url(#paint2_linear)"/>
<path d="M25.2525 92.5828C25.3123 92.6101 25.3073 93.3957 25.2525 94.6734L21.3571 98.4147H21.2324C21.2648 97.7212 21.3022 97.0723 21.3446 96.4757L25.2525 92.5828Z" fill="#A2E7DD"/>
<path d="M25.2525 92.5826L21.3546 96.4681C21.4818 94.3675 21.6314 92.943 21.8085 92.8162C22.5392 92.2917 24.9208 92.4309 25.2525 92.5826Z" fill="#EFEFEF"/>
<path d="M21.3571 98.4146L25.265 94.6733C25.235 95.536 25.1852 96.6198 25.1278 97.8429L21.0978 101.696C21.1352 100.543 21.1801 99.4314 21.2324 98.4097L21.3571 98.4146Z" fill="white"/>
<path d="M21.0978 101.696L25.1278 97.8428C25.0929 98.5885 25.048 99.3915 25.0006 100.222L21.1975 103.861H21.0229C21.0454 103.123 21.0678 102.402 21.0978 101.696Z" fill="#A2E7DD"/>
<path d="M21.1975 103.861L25.0031 100.222C24.9333 101.559 24.851 102.976 24.7537 104.396L20.9058 108.087C20.9382 106.708 20.9756 105.271 21.0205 103.861H21.1975Z" fill="white"/>
<path d="M20.9057 108.087L24.7637 104.408C24.7163 105.221 24.6664 106.039 24.6141 106.839L20.8484 110.434C20.8634 109.683 20.8808 108.895 20.9057 108.087Z" fill="#A2E7DD"/>
<path d="M20.8484 110.434L24.6141 106.827C24.5243 108.388 24.427 109.895 24.3422 111.235L22.4843 113.527C21.9307 113.527 21.3372 114.606 20.7611 114.665C20.7611 114.665 20.8235 111.404 20.8484 110.434Z" fill="white"/>
<path d="M23.9606 112.885L20.7336 116.03V116.751C21.7754 116.332 22.901 116.162 24.0205 116.253L24.2699 112.656C24.1651 112.636 24.0479 112.89 23.9606 112.885Z" fill="white"/>
<path d="M22.4843 113.02L20.7611 114.665C20.7611 115.239 20.7411 115.727 20.7336 116.107L24.2449 112.783C24.2774 112.301 24.3073 111.789 24.3422 111.235L22.4843 113.02Z" fill="#A2E7DD"/>
<path d="M19.5716 117.268C19.9994 116.974 20.4617 116.734 20.9482 116.552C21.4304 116.363 21.9323 116.229 22.4445 116.152C22.9636 116.074 23.4914 116.074 24.0106 116.152C24.5351 116.217 25.0394 116.395 25.4894 116.671C25.5256 116.694 25.5514 116.73 25.5612 116.771C25.571 116.812 25.564 116.856 25.5418 116.892C25.522 116.923 25.4922 116.947 25.4574 116.959C25.4226 116.971 25.3847 116.971 25.3498 116.959C24.9005 116.803 24.4311 116.711 23.9557 116.686C23.4806 116.66 23.004 116.685 22.5342 116.761C22.0579 116.835 21.5872 116.941 21.1252 117.079C20.6639 117.218 20.195 117.377 19.7437 117.556C19.7072 117.569 19.6674 117.568 19.6314 117.554C19.5954 117.541 19.5655 117.514 19.5472 117.48C19.5288 117.447 19.5232 117.407 19.5313 117.37C19.5395 117.332 19.5608 117.299 19.5915 117.275L19.5716 117.268Z" fill="#BC4B66"/>
<path d="M23.3172 92.3962C23.1801 92.1101 23.0803 91.8077 23.0204 91.4963C22.9568 91.1838 22.9267 90.8655 22.9306 90.5467C22.9332 90.2195 22.9845 89.8944 23.0828 89.5822C23.182 89.259 23.3623 88.9664 23.6065 88.732C23.6215 88.717 23.6394 88.705 23.6591 88.6969C23.6788 88.6888 23.6999 88.6846 23.7212 88.6846C23.7425 88.6846 23.7636 88.6888 23.7833 88.6969C23.803 88.705 23.8209 88.717 23.8359 88.732C23.8576 88.7559 23.8718 88.7855 23.8766 88.8174C23.8815 88.8492 23.8769 88.8818 23.8633 88.911V88.911C23.7478 89.1615 23.664 89.4254 23.614 89.6965C23.5687 89.9735 23.5462 90.2537 23.5466 90.5343C23.5466 90.8201 23.5466 91.111 23.5716 91.4018L23.6314 92.2868C23.6336 92.324 23.6229 92.3608 23.6011 92.391C23.5793 92.4212 23.5477 92.4429 23.5116 92.4526C23.4755 92.4622 23.4373 92.4591 23.4032 92.4439C23.3691 92.4286 23.3414 92.4021 23.3247 92.3689L23.3172 92.3962Z" fill="#221A17"/>
<path d="M45.5672 115.035L5.63611 123.162V127.987L69.2734 115.035H45.5672Z" fill="#F7F7F7"/>
<path d="M11.9704 161L84.9072 146.171V141.344L5.82312 157.428C5.99151 158.74 6.5293 159.979 7.37428 161H11.9704Z" fill="#F7F7F7"/>
<path d="M81.6054 116.286L5.63611 131.753V136.568L84.5805 120.514C84.1844 118.77 83.1157 117.251 81.6054 116.286V116.286Z" fill="#F7F7F7"/>
<path d="M12.7186 115.035C11.3405 115.037 9.99301 115.44 8.84126 116.194C7.68951 116.949 6.7836 118.021 6.23462 119.281L27.0954 115.035H12.7186Z" fill="#F7F7F7"/>
<path d="M84.9072 132.765L5.63611 148.889V153.714L84.9072 137.59V132.765Z" fill="#F7F7F7"/>
<path d="M84.9072 124.196L5.63611 140.32V145.145L84.9072 129.021V124.196Z" fill="#F7F7F7"/>
<path d="M54.1608 161L84.9071 154.748V149.923L30.457 161H54.1608Z" fill="#F7F7F7"/>
<path d="M83.1839 161C83.7654 160.282 84.2062 159.462 84.4832 158.581L72.6001 161H83.1839Z" fill="#F7F7F7"/>
<path d="M27.1004 115.035L6.23461 119.281C5.83653 120.167 5.63086 121.127 5.6311 122.098V123.162L45.5622 115.035H27.1004Z" fill="#E593B4"/>
<path d="M77.8223 115.035H69.2734L5.63611 127.987V131.753L81.6054 116.298C80.5006 115.567 79.2437 115.035 77.8223 115.035Z" fill="#E593B4"/>
<path d="M84.9072 122.098C84.9072 121.526 84.7102 121.024 84.5805 120.502L5.63611 136.556V140.317L84.9072 124.196V122.098Z" fill="#E593B4"/>
<path d="M84.9072 129.021L5.63611 145.145V148.889L84.9072 132.765V129.021Z" fill="#E593B4"/>
<path d="M84.9072 137.59L5.63611 153.714V156.513C5.63611 156.836 5.78574 157.112 5.82315 157.428L84.9072 141.344V137.59Z" fill="#E593B4"/>
<path d="M30.4571 161L84.9072 149.923V146.169L11.9803 161H30.4571Z" fill="#E593B4"/>
<path d="M72.6002 161L84.4833 158.581C84.7335 157.919 84.8766 157.22 84.9072 156.513V154.748L54.1609 161H72.6002Z" fill="#E593B4"/>
<path d="M7.84803 111.796C6.25831 111.849 4.7235 112.389 3.4529 113.342C2.1823 114.296 1.23777 115.618 0.748125 117.126C-0.289305 120.425 -0.678341 124.358 2.5761 125.814C8.58122 128.499 10.898 121.021 10.898 121.021C10.898 121.021 13.5863 129.901 24.1003 129.782C34.6142 129.663 32.7488 121.444 32.7488 121.444C32.7488 121.444 35.8387 130.985 43.0059 130.336C50.1732 129.687 50.8141 121.986 50.8141 121.986C50.8141 121.986 57.3753 127.798 63.2832 127.127C69.1911 126.456 70.4305 119.368 70.4305 119.368C70.4305 119.368 77.9868 127.547 85.573 126.926C85.573 126.926 91.8898 112.01 83.1016 110.519C75.7074 109.241 24.0928 111.155 7.84803 111.796Z" fill="#DD667F"/>
<path opacity="0.31" d="M17.9279 83.1215C20.7528 81.9551 22.0943 78.7268 20.9242 75.9109C19.7541 73.095 16.5155 71.7578 13.6907 72.9242C10.8658 74.0906 9.52435 77.3189 10.6944 80.1348C11.8645 82.9507 15.1031 84.2879 17.9279 83.1215Z" fill="#FCE481"/>
<path d="M12.539 81.3861C13.5066 77.4658 17.0279 77.2769 17.0279 77.2769C15.4767 80.5607 17.8135 82.455 17.0578 83.596C16.0603 85.095 11.5814 85.3138 12.539 81.3861Z" fill="url(#paint3_linear)"/>
<path d="M16.3894 86.3804C16.4592 86.4127 16.4543 87.3499 16.4044 88.8663L11.7534 93.321H11.6088C11.6437 92.4957 11.6911 91.7226 11.7384 91.0141H11.7534L16.3894 86.3804Z" fill="#A2E7DD"/>
<path d="M16.3894 86.3803L11.7534 91.0066H11.7384C11.8905 88.5057 12.0676 86.8128 12.2796 86.6612C13.1599 86.0372 15.9929 86.2013 16.3894 86.3803Z" fill="#EFEFEF"/>
<path d="M11.7534 93.3212L16.4044 88.8689C16.3695 89.8981 16.3097 91.1858 16.2398 92.6425L11.4442 97.2265C11.4891 95.8543 11.544 94.5293 11.6088 93.3162L11.7534 93.3212Z" fill="white"/>
<path d="M11.4441 97.2264L16.2398 92.6423C16.1999 93.5323 16.145 94.4819 16.0901 95.4713L11.5614 99.8018L11.3544 99.7894C11.3843 98.9218 11.4092 98.0641 11.4441 97.2264Z" fill="#A2E7DD"/>
<path d="M11.5613 99.8019L16.0901 95.4714C16.0053 97.0624 15.9081 98.7504 15.8083 100.443L11.2222 104.828C11.2621 103.188 11.3045 101.477 11.3593 99.7895L11.5613 99.8019Z" fill="white"/>
<path d="M11.2223 104.828L15.8084 100.431C15.751 101.395 15.6937 102.37 15.6313 103.322L11.1425 107.615C11.1674 106.727 11.1873 105.79 11.2223 104.828Z" fill="#A2E7DD"/>
<path d="M11.1474 107.623L15.6363 103.329C15.529 105.186 15.4118 106.979 15.3121 108.572L13.1 111.307C12.4417 111.307 11.7359 112.589 11.0526 112.661C11.0476 112.656 11.1199 108.773 11.1474 107.623Z" fill="white"/>
<path d="M14.8533 110.539L11.0128 114.267L10.9978 115.123C11.9953 114.747 13.4467 114.349 14.9081 114.521L15.2124 110.255C15.0976 110.24 14.963 110.544 14.8533 110.539Z" fill="white"/>
<path d="M13.095 110.697L11.0476 112.656C11.0302 113.338 11.0202 113.917 11.0127 114.372L15.1898 110.417C15.2297 109.842 15.2647 109.223 15.3071 108.572L13.095 110.697Z" fill="#A2E7DD"/>
<path d="M9.63118 115.754C10.1349 115.405 10.6792 115.119 11.2522 114.901C11.8258 114.676 12.4231 114.516 13.0328 114.424C13.6505 114.328 14.2791 114.324 14.8981 114.412C15.5216 114.491 16.1209 114.702 16.6563 115.031C16.6777 115.044 16.6964 115.061 16.7111 115.081C16.7259 115.102 16.7364 115.125 16.7422 115.149C16.748 115.174 16.7489 115.199 16.7448 115.224C16.7408 115.249 16.7319 115.273 16.7186 115.294C16.6949 115.33 16.6598 115.358 16.6187 115.372C16.5777 115.387 16.533 115.387 16.4917 115.374C15.9565 115.187 15.3971 115.078 14.8308 115.05C14.2658 115.018 13.6989 115.046 13.14 115.135C12.576 115.224 12.0186 115.352 11.4716 115.515C10.923 115.679 10.3644 115.871 9.82819 116.082C9.78502 116.097 9.73787 116.096 9.69523 116.08C9.6526 116.063 9.61728 116.032 9.59563 115.992C9.57398 115.952 9.56742 115.905 9.57714 115.861C9.58686 115.816 9.61221 115.777 9.64864 115.749L9.63118 115.754Z" fill="#BC4B66"/>
<path d="M14.0851 86.1591C13.9227 85.8185 13.8053 85.4583 13.736 85.0876C13.6564 84.7169 13.6204 84.3381 13.6287 83.959C13.6307 83.5702 13.6912 83.1839 13.8083 82.813C13.926 82.4282 14.1406 82.0799 14.4318 81.8013C14.4645 81.7704 14.5071 81.7519 14.552 81.7491C14.597 81.7464 14.6416 81.7595 14.6778 81.7862C14.7141 81.8128 14.7398 81.8514 14.7505 81.8951C14.7611 81.9387 14.756 81.9847 14.736 82.025V82.0374C14.5962 82.3346 14.4965 82.6489 14.4392 82.9721C14.384 83.3007 14.3565 83.6333 14.3569 83.9665C14.3569 84.3071 14.3694 84.6526 14.3894 84.9981L14.4592 86.0522C14.462 86.097 14.4492 86.1414 14.4228 86.1778C14.3964 86.2142 14.3582 86.2404 14.3146 86.2519C14.271 86.2633 14.2248 86.2593 14.1839 86.2406C14.1429 86.2218 14.1098 86.1895 14.0901 86.1491L14.0851 86.1591Z" fill="#221A17"/>
<path opacity="0.19" d="M86.6407 78.1526C87.1306 75.1441 85.0811 72.3093 82.063 71.8209C79.0449 71.3326 76.2011 73.3756 75.7112 76.3841C75.2212 79.3926 77.2708 82.2274 80.2889 82.7158C83.307 83.2041 86.1508 81.1611 86.6407 78.1526Z" fill="#FCE481"/>
<path d="M77.9019 80.628C78.8695 76.7077 82.3783 76.5188 82.3783 76.5188C80.8272 79.8002 83.1664 81.697 82.4083 82.838C81.4232 84.337 76.9443 84.5558 77.9019 80.628Z" fill="url(#paint4_linear)"/>
<path d="M81.7525 85.6221C81.8223 85.6544 81.8173 86.5891 81.7674 88.108L77.1189 92.5602H76.9718C77.0092 91.7374 77.0541 90.9643 77.104 90.2533H77.1164L81.7525 85.6221Z" fill="#A2E7DD"/>
<path d="M81.7525 85.6222L77.1165 90.2385H77.104C77.2561 87.7402 77.4332 86.0473 77.6427 85.8956C78.5255 85.2667 81.3585 85.4432 81.7525 85.6222Z" fill="#EFEFEF"/>
<path d="M77.1189 92.5629L81.7674 88.1106C81.7325 89.1398 81.6726 90.425 81.6053 91.8842L76.8097 96.4682C76.8546 95.096 76.9069 93.771 76.9718 92.5554L77.1189 92.5629Z" fill="white"/>
<path d="M76.8097 96.4681L81.6053 91.884C81.5629 92.774 81.508 93.7236 81.4532 94.7105L76.9244 99.041H76.7174C76.7498 98.1635 76.7723 97.3058 76.8097 96.4681Z" fill="#A2E7DD"/>
<path d="M76.9245 99.0411L81.4532 94.7131C81.3684 96.3041 81.2712 97.9921 81.1739 99.685L76.5803 104.078C76.6202 102.434 76.6651 100.727 76.7175 99.0386L76.9245 99.0411Z" fill="white"/>
<path d="M76.5803 104.07L81.1739 99.6851C81.1141 100.652 81.0567 101.627 80.9944 102.576L76.5055 106.872C76.5304 105.969 76.5604 105.032 76.5803 104.07Z" fill="#A2E7DD"/>
<path d="M76.513 106.864L81.0019 102.569C80.8947 104.428 80.7775 106.22 80.6777 107.814L78.4657 110.548C77.8073 110.548 77.1041 111.831 76.4183 111.903C76.4108 111.898 76.4831 108.015 76.513 106.864Z" fill="white"/>
<path d="M80.2163 109.78L76.3783 113.521L76.3608 114.377C77.3584 114.001 78.8098 113.604 80.2736 113.775L80.5654 109.494C80.4607 109.482 80.321 109.785 80.2163 109.78Z" fill="white"/>
<path d="M78.4581 109.939L76.4106 111.898C76.3957 112.579 76.3832 113.159 76.3757 113.614L80.5504 109.659C80.5928 109.082 80.6252 108.463 80.6676 107.814L78.4581 109.939Z" fill="#A2E7DD"/>
<path d="M74.9967 114.993C75.501 114.646 76.0452 114.359 76.6177 114.141C77.1917 113.917 77.7889 113.758 78.3983 113.666C79.0152 113.57 79.6428 113.565 80.2612 113.651C80.8848 113.732 81.4841 113.943 82.0193 114.272C82.0408 114.286 82.0594 114.303 82.0741 114.323C82.0889 114.344 82.0994 114.367 82.1052 114.391C82.111 114.416 82.1119 114.441 82.1079 114.466C82.1038 114.491 82.0949 114.515 82.0817 114.536C82.0583 114.573 82.0232 114.6 81.982 114.615C81.9408 114.629 81.896 114.629 81.8547 114.615C81.3201 114.429 80.7618 114.32 80.1963 114.29C79.6304 114.259 79.0628 114.288 78.503 114.377C77.9365 114.466 77.3767 114.593 76.8272 114.757C76.2785 114.921 75.7199 115.113 75.1862 115.324C75.1424 115.341 75.0937 115.342 75.0494 115.326C75.0052 115.309 74.9685 115.277 74.9463 115.236C74.9241 115.194 74.918 115.146 74.9291 115.101C74.9403 115.055 74.9679 115.015 75.0067 114.988L74.9967 114.993Z" fill="#BC4B66"/>
<path d="M79.4507 85.4009C79.2864 85.0609 79.1681 84.7006 79.0991 84.3295C79.0219 83.9583 78.986 83.5798 78.9918 83.2009C78.9938 82.8112 79.0543 82.4241 79.1714 82.0524C79.2924 81.6673 79.5095 81.3192 79.8023 81.0406C79.8359 81.0119 79.8782 80.9955 79.9223 80.994C79.9665 80.9925 80.0098 81.006 80.0452 81.0324C80.0806 81.0587 80.106 81.0963 80.1172 81.1389C80.1283 81.1815 80.1246 81.2266 80.1066 81.2668V81.2668C79.966 81.5639 79.8653 81.8782 79.8073 82.2015C79.7533 82.5303 79.7258 82.8628 79.725 83.1959C79.725 83.5365 79.7375 83.8795 79.7574 84.2275L79.8297 85.2816C79.8332 85.3326 79.8162 85.3829 79.7826 85.4216C79.749 85.4602 79.7014 85.4841 79.6502 85.4879C79.612 85.4952 79.5725 85.4908 79.5369 85.4753C79.5012 85.4598 79.4712 85.4338 79.4507 85.4009V85.4009Z" fill="#221A17"/>
<path opacity="0.19" d="M73.0113 81.1558C73.5012 78.1472 71.4517 75.3125 68.4336 74.8241C65.4155 74.3358 62.5717 76.3788 62.0818 79.3873C61.5919 82.3958 63.6413 85.2306 66.6594 85.719C69.6775 86.2073 72.5214 84.1643 73.0113 81.1558Z" fill="#FCE481"/>
<path d="M64.2733 83.6334C65.2409 79.7107 68.7497 79.5217 68.7497 79.5217C67.1985 82.8056 69.5377 84.7024 68.7796 85.8434C67.7946 87.3424 63.3157 87.5612 64.2733 83.6334Z" fill="url(#paint5_linear)"/>
<path d="M68.1238 88.6277C68.1936 88.66 68.1886 89.5947 68.1388 91.1136L63.4903 95.5659H63.3431C63.3805 94.743 63.4254 93.9674 63.4753 93.2589H63.4878L68.1238 88.6277Z" fill="#A2E7DD"/>
<path d="M68.1237 88.6275L63.4877 93.2513H63.4752C63.6273 90.753 63.8044 89.0576 64.0139 88.9084C64.8967 88.282 67.7297 88.4485 68.1237 88.6275Z" fill="#EFEFEF"/>
<path d="M63.4903 95.5682L68.1387 91.116C68.1038 92.1426 68.044 93.4304 67.9766 94.8871L63.181 99.4736C63.2259 98.0989 63.2783 96.7764 63.3431 95.5608L63.4903 95.5682Z" fill="white"/>
<path d="M63.181 99.4737L67.9766 94.8872C67.9342 95.7797 67.8794 96.7293 67.8245 97.7162L63.2957 102.047H63.0887C63.1212 101.177 63.1436 100.311 63.181 99.4737Z" fill="#A2E7DD"/>
<path d="M63.2958 102.047L67.832 97.7161C67.7472 99.3071 67.65 100.995 67.5527 102.688L62.9591 107.081C62.999 105.437 63.0439 103.73 63.0963 102.042L63.2958 102.047Z" fill="white"/>
<path d="M62.9515 107.076L67.5451 102.683C67.4853 103.65 67.4279 104.622 67.3656 105.574L62.8767 109.87C62.9016 108.975 62.9216 108.038 62.9515 107.076Z" fill="#A2E7DD"/>
<path d="M62.8842 109.877L67.3731 105.582C67.2658 107.441 67.1486 109.233 67.0489 110.827L64.8369 113.561C64.1785 113.561 63.4752 114.844 62.7894 114.916C62.782 114.904 62.8443 111.021 62.8842 109.877Z" fill="white"/>
<path d="M66.585 112.786L62.7471 116.515L62.7296 117.372C63.7271 116.997 65.1785 116.599 66.6424 116.768L66.9342 112.49C66.8344 112.488 66.6923 112.791 66.585 112.786Z" fill="white"/>
<path d="M64.8394 112.942L62.792 114.904C62.777 115.585 62.7646 116.164 62.7571 116.616L66.9342 112.664C66.9766 112.087 67.009 111.468 67.0514 110.819L64.8394 112.942Z" fill="#A2E7DD"/>
<path d="M61.368 117.999C61.8717 117.65 62.416 117.364 62.989 117.146C63.5622 116.923 64.1585 116.763 64.767 116.671C65.3848 116.575 66.0132 116.57 66.6324 116.656C67.256 116.737 67.8553 116.949 68.3906 117.278C68.413 117.289 68.4331 117.304 68.4497 117.322C68.4663 117.341 68.479 117.362 68.4873 117.386C68.4955 117.409 68.499 117.434 68.4976 117.459C68.4962 117.483 68.4899 117.508 68.4791 117.53C68.4683 117.552 68.4532 117.572 68.4346 117.589C68.416 117.606 68.3944 117.618 68.3709 117.626C68.3474 117.635 68.3225 117.638 68.2976 117.637C68.2727 117.635 68.2484 117.629 68.226 117.618C67.6905 117.433 67.1313 117.324 66.5651 117.295C66 117.265 65.4332 117.294 64.8743 117.382C64.3078 117.472 63.7479 117.599 63.1984 117.763C62.6498 117.927 62.0912 118.118 61.555 118.329C61.5112 118.347 61.4625 118.347 61.4182 118.331C61.374 118.315 61.3373 118.283 61.3151 118.241C61.2929 118.2 61.2868 118.152 61.2979 118.106C61.309 118.06 61.3366 118.02 61.3754 117.994L61.368 117.999Z" fill="#BC4B66"/>
<path d="M65.8219 88.4064C65.6583 88.0661 65.5401 87.7059 65.4703 87.335C65.3932 86.9638 65.3572 86.5853 65.363 86.2064C65.365 85.8167 65.4255 85.4296 65.5426 85.0579C65.6609 84.6733 65.8754 84.3251 66.166 84.0461C66.1847 84.0291 66.2065 84.0159 66.2303 84.0073C66.2541 83.9987 66.2793 83.9949 66.3045 83.9961C66.3298 83.9972 66.3546 84.0033 66.3775 84.014C66.4003 84.0248 66.4209 84.0399 66.4379 84.0585C66.464 84.0869 66.481 84.1224 66.4867 84.1605C66.4925 84.1986 66.4868 84.2375 66.4703 84.2723V84.2848C66.3299 84.581 66.2293 84.8945 66.171 85.217C66.1173 85.5457 66.0898 85.8782 66.0887 86.2113C66.0887 86.5494 66.1012 86.895 66.1212 87.243L66.1935 88.297C66.1962 88.3476 66.179 88.3973 66.1454 88.4354C66.1118 88.4735 66.0646 88.497 66.0139 88.5008C65.9761 88.5062 65.9375 88.5001 65.9032 88.4832C65.869 88.4664 65.8406 88.4396 65.8219 88.4064Z" fill="#221A17"/>
<path opacity="0.19" d="M41.2759 80.5237C41.7658 77.5152 39.7163 74.6804 36.6982 74.192C33.6801 73.7037 30.8363 75.7467 30.3464 78.7552C29.8565 81.7637 31.906 84.5985 34.9241 85.0869C37.9422 85.5752 40.786 83.5322 41.2759 80.5237Z" fill="#FCE481"/>
<path d="M32.5419 82.9996C33.507 79.0793 37.0158 78.8904 37.0158 78.8904C35.4646 82.1743 37.8038 84.0685 37.0482 85.2096C36.0607 86.7111 31.5818 86.9273 32.5419 82.9996Z" fill="url(#paint6_linear)"/>
<path d="M36.3899 88.0012C36.4622 88.036 36.4572 88.9707 36.4049 90.4871L31.7564 94.9394H31.6093C31.6467 94.1141 31.6915 93.3409 31.7414 92.6325L36.3899 88.0012Z" fill="#A2E7DD"/>
<path d="M36.3899 88.0011L31.7539 92.6274C31.906 90.1265 32.0831 88.4336 32.2926 88.2845C33.1679 87.6506 35.9959 87.8147 36.3899 88.0011Z" fill="#EFEFEF"/>
<path d="M31.7564 94.9344L36.4098 90.4871C36.3749 91.5162 36.3176 92.8039 36.2478 94.2607L31.4471 98.8397C31.492 97.4675 31.5469 96.145 31.6092 94.9294L31.7564 94.9344Z" fill="white"/>
<path d="M31.4471 98.8396L36.2427 94.2556C36.2003 95.1456 36.1479 96.0952 36.0906 97.0846L31.5618 101.425H31.3573C31.3872 100.538 31.4221 99.6849 31.4471 98.8396Z" fill="#A2E7DD"/>
<path d="M31.5619 101.425L36.0906 97.0947C36.0083 98.6857 35.9086 100.374 35.8113 102.067L31.2202 106.457C31.2601 104.816 31.3025 103.106 31.3574 101.418L31.5619 101.425Z" fill="white"/>
<path d="M31.2202 106.442L35.8113 102.052C35.7515 103.016 35.6941 103.991 35.6343 104.943L31.1454 109.236C31.1728 108.343 31.1903 107.404 31.2202 106.442Z" fill="#A2E7DD"/>
<path d="M31.1504 109.236L35.6392 104.943C35.5295 106.8 35.4123 108.594 35.315 110.185L33.103 112.92C32.4447 112.92 31.7389 114.203 31.0531 114.275C31.0481 114.27 31.1204 110.387 31.1504 109.236Z" fill="white"/>
<path d="M34.8561 112.152L31.0156 115.893L30.9982 116.751C31.9957 116.373 33.4471 115.975 34.911 116.147L35.2028 111.866C35.098 111.866 34.9584 112.159 34.8561 112.152Z" fill="white"/>
<path d="M33.098 112.311L31.0481 114.27C31.0331 114.951 31.0232 115.53 31.0132 115.985L35.1928 112.03C35.2327 111.456 35.2652 110.837 35.31 110.186L33.098 112.311Z" fill="#A2E7DD"/>
<path d="M29.6341 117.367C30.1376 117.018 30.682 116.732 31.2551 116.515C31.8288 116.289 32.4261 116.129 33.0357 116.037C33.6533 115.945 34.2811 115.945 34.8986 116.037C35.5222 116.117 36.1215 116.328 36.6568 116.656C36.6785 116.669 36.6973 116.686 36.7123 116.707C36.7272 116.727 36.7379 116.75 36.7437 116.775C36.7495 116.799 36.7503 116.825 36.7461 116.85C36.7419 116.875 36.7327 116.898 36.7191 116.92C36.696 116.957 36.6609 116.985 36.6197 116.999C36.5784 117.014 36.5334 117.014 36.4922 116.999C35.9578 116.813 35.3993 116.704 34.8338 116.676C34.2687 116.645 33.702 116.673 33.143 116.761C32.5766 116.851 32.0168 116.978 31.4671 117.141C30.9185 117.305 30.3574 117.497 29.8237 117.71C29.7805 117.725 29.7334 117.725 29.6907 117.708C29.6481 117.692 29.6128 117.66 29.5911 117.62C29.5695 117.58 29.5629 117.533 29.5726 117.489C29.5823 117.444 29.6077 117.405 29.6441 117.377L29.6341 117.367Z" fill="#BC4B66"/>
<path d="M34.088 87.775C33.9263 87.4331 33.8081 87.0723 33.7364 86.7011C33.6592 86.33 33.6232 85.9515 33.6292 85.5725C33.6323 85.1838 33.6928 84.7977 33.8087 84.4265C33.9284 84.0426 34.1428 83.6947 34.4322 83.4147C34.4703 83.3802 34.5205 83.3621 34.5719 83.3645C34.6233 83.3668 34.6717 83.3893 34.7065 83.4272C34.7323 83.4553 34.7489 83.4905 34.7543 83.5282C34.7596 83.5659 34.7534 83.6043 34.7364 83.6385V83.6509C34.5968 83.9484 34.4963 84.2625 34.4372 84.5856C34.3828 84.9143 34.3561 85.2469 34.3574 85.58C34.3574 85.9205 34.3698 86.2661 34.3898 86.6141L34.4596 87.6657C34.4617 87.691 34.4586 87.7165 34.4506 87.7407C34.4427 87.7648 34.43 87.7872 34.4133 87.8064C34.3965 87.8256 34.3762 87.8413 34.3533 87.8525C34.3304 87.8638 34.3055 87.8704 34.2801 87.872C34.242 87.8765 34.2035 87.8697 34.1694 87.8524C34.1352 87.8352 34.1069 87.8082 34.088 87.775V87.775Z" fill="#221A17"/>
<path d="M131.861 88.2026C132.479 93.5821 133.088 98.9625 133.689 104.344C134.586 112.276 137.611 148.866 138.821 161H213.72C213.626 148.593 212.396 136.501 210.329 124.529C207.658 109.052 203.595 93.776 198.777 78.2714C195.807 68.7056 192.658 59.1796 188.832 49.8947C187.273 46.1161 185.747 39.8467 182.894 36.8188C180.378 34.149 174.7 33.7089 171.026 33.6021C165.29 33.433 159.577 34.5293 153.928 35.6231C145.527 37.2489 136.419 39.2625 130.955 45.5667C126.561 50.6405 125.439 57.6408 126.187 64.0992C127.132 72.34 130.908 79.932 131.861 88.2026Z" fill="white"/>
<path opacity="0.15" d="M173.321 46.5884C172.408 44.2517 184.293 38.2855 182.909 36.8188C180.393 34.149 174.715 33.7089 171.041 33.6021C165.305 33.433 159.592 34.5293 153.944 35.6231C145.542 37.2489 136.434 39.26 130.971 45.5667C126.561 50.6405 125.439 57.6408 126.187 64.0992C127.005 71.2089 129.928 77.8264 131.32 84.8143C151.924 80.2501 160.615 67.0052 173.321 46.5884Z" fill="#442D54"/>
<path d="M132.921 11.5694C133.145 8.94924 135.2 -1.4543 139.542 0.171486C140.726 0.616464 141.5 1.74507 142.103 2.85627C145.844 9.76213 146.791 18.7437 146.195 26.4724C145.996 29.0428 145.697 31.8395 143.894 33.6816C143.21 34.3776 142.265 34.9071 141.295 34.7928C140.547 34.7033 139.891 34.2459 139.3 33.781C132.459 28.4413 132.203 19.6585 132.921 11.5694Z" fill="#FEFFFE"/>
<path d="M131.083 37.8975C121.584 36.0132 125.596 24.2549 128.781 18.8132C130.372 16.0961 132.549 13.7743 134.704 11.4773C136.519 9.54325 138.362 7.58435 140.629 6.20467C141.335 5.77461 142.125 5.39426 142.946 5.41912C143.766 5.44398 144.637 5.99585 144.751 6.81372C144.826 7.35068 144.582 7.8752 144.337 8.35996C142.45 12.1162 141.843 15.4025 145.245 18.5522C146.607 19.8101 148.487 20.5757 150.327 20.357C151.098 20.265 151.894 20.0114 152.629 20.2575C153.313 20.4862 153.781 21.0953 154.208 21.672C154.707 22.3531 155.225 23.0517 155.455 23.8621C155.924 25.4382 155.258 27.1733 154.163 28.4014C153.068 29.6294 151.597 30.4498 150.155 31.2452C147.283 32.8337 144.188 33.9474 141.365 35.4713C138.2 37.1741 134.781 38.6309 131.083 37.8975Z" fill="#D76A99"/>
<path d="M158.108 27.0566L140.322 33.4851L133.39 25.8783C138.711 26.02 143.909 25.0206 148.779 22.0002L158.108 27.0566Z" fill="url(#paint7_linear)"/>
<path d="M148.779 22.0003C143.908 25.0207 138.711 26.02 133.389 25.8783L125.768 17.5157C129.097 17.0961 132.338 16.1556 135.372 14.729L148.779 22.0003Z" fill="url(#paint8_linear)"/>
<path d="M125.659 9.46143L135.385 14.7291C132.35 16.1557 129.109 17.0962 125.781 17.5158L121.015 12.2954C122.638 11.4788 124.191 10.5309 125.659 9.46143V9.46143Z" fill="url(#paint9_linear)"/>
<path d="M116.441 7.2811C116.237 7.05846 116.119 6.77065 116.107 6.46903C116.096 6.16742 116.193 5.87163 116.38 5.63447C116.567 5.39731 116.833 5.2342 117.13 5.17427C117.427 5.11434 117.735 5.16148 118 5.30728L125.659 9.46124C124.187 10.5279 122.629 11.4724 121.003 12.2852L116.441 7.2811Z" fill="url(#paint10_linear)"/>
<path opacity="0.15" d="M116.362 5.67529L147.769 31.6978L140.322 33.4852L133.39 25.8783L125.768 17.5157L121.003 12.2953L116.441 7.28119C116.24 7.06631 116.121 6.78694 116.106 6.49284C116.091 6.19874 116.182 5.90902 116.362 5.67529V5.67529Z" fill="#482D58"/>
<path d="M106.736 77.1228C108.506 77.4161 110.257 77.62 111.908 77.7567C112.798 77.8337 113.691 77.8387 114.584 77.8462L118.028 77.8661C119.038 77.8661 119.322 77.794 119.075 76.9662C118.923 76.4541 118.761 75.9445 118.604 75.4348L117.025 70.3014C115.569 65.5782 114.114 60.855 112.661 56.1318L109.262 45.0918C109.127 44.6593 108.995 44.2267 108.86 43.7942C101.95 46.658 95.2141 50.1457 90.8051 56.0746C89.421 57.9216 88.2813 60.0893 88.2314 62.4087C88.235 63.8749 88.5763 65.3207 89.229 66.6347C92.3837 73.292 99.733 75.9569 106.736 77.1228Z" fill="#FFC6A4"/>
<path d="M173.545 39.593C168.281 27.253 155.737 25.5228 144.577 29.8607L113.469 41.9546C111.94 42.5488 110.396 43.1553 108.86 43.7917L119.274 77.6001C130.497 77.0557 142.048 73.1255 151.597 68.3252L151.921 68.1611C157.707 65.2253 163.113 61.4119 167.505 56.6116C170.632 53.1984 174.779 47.2571 174.318 42.2778C174.199 41.3488 173.939 40.4434 173.545 39.593V39.593Z" fill="#FEFFFE"/>
<path d="M155.872 45.2705C157.392 44.7887 158.015 42.4879 157.263 40.1315C156.511 37.7752 154.67 36.2555 153.15 36.7373C151.63 37.2191 151.007 39.5198 151.759 41.8762C152.51 44.2326 154.352 45.7523 155.872 45.2705Z" fill="#252525"/>
<path d="M201.75 79.2111C204.83 79.9693 207.985 80.8742 210.576 82.9101C213.167 84.9461 215.127 88.3791 214.721 91.7649C214.264 95.5485 211.157 98.1214 208.07 99.7795C206.102 100.841 203.925 101.719 201.705 101.368C203.002 98.6683 201.87 95.1781 200.097 92.6847C198.324 90.1914 195.945 88.2499 194.254 85.6794C193.234 84.1382 190.062 77.645 192.082 76.31C193.239 75.5469 200.221 78.8357 201.75 79.2111Z" fill="#A08EDD"/>
<path d="M211.389 42.3947C210.715 42.35 210.077 42.6433 209.454 42.8919C203.199 45.4424 196.191 45.5493 189.503 44.1622C185.847 43.404 169.757 40.0033 168.906 34.7754C170.468 44.376 178.271 51.8536 186.692 55.1151C192.179 57.2406 197.945 57.9043 203.65 58.0758C206.643 58.1653 213.316 59.9204 215.738 58.0758C220.317 54.5682 217.085 42.7701 211.389 42.3947Z" fill="#F4DC62"/>
<path d="M222.461 68.6111C222.983 65.7921 223.459 62.6872 222.172 60.1019C220.885 57.5165 218.14 56.2164 215.531 55.9753C212.922 55.7341 210.351 56.373 207.78 56.7683C197.408 58.3568 186.396 55.7739 177.256 49.6113C177.987 50.9811 178.717 52.3458 179.523 53.6683C185.685 63.7736 196.309 70.5178 207.177 71.2213C210.75 71.4525 213.573 71.7956 216.88 73.3891C218.82 74.3262 218.404 75.5419 220.436 73.8017C221.673 72.7328 222.162 70.2145 222.461 68.6111Z" fill="#A2E7DD"/>
<path d="M192.635 46.3175C199.029 47.7594 218.289 46.8147 209.892 34.0347C204.279 25.4931 191.688 30.5544 183.807 29.0628C181.618 28.6477 179.493 27.7751 177.303 27.3501C170.301 25.9952 162.692 29.1971 156.37 25.3613C158.375 29.3093 161.349 32.6873 165.016 35.1807C167.759 37.0078 170.772 38.2011 173.765 39.3794L183.974 43.4016C186.825 44.5252 189.688 45.6513 192.635 46.3175Z" fill="#DE8F24"/>
<path d="M180.338 15.318C185.413 17.3241 190.044 20.5782 194.498 23.9914C198.279 26.8874 202.608 30.0918 206.987 29.085C206.005 29.3112 204.468 31.7151 203.162 32.2197C201.551 32.8462 199.561 32.9282 197.847 32.9506C193.673 33.0028 189.578 31.7449 185.628 30.1614C180.992 28.2994 176.039 27.6755 171.191 27.7426C167.887 27.7923 161.884 30.2136 158.772 28.6649C151.981 25.2815 158.455 19.4421 161.764 16.8717C167.283 12.5711 173.423 12.668 180.036 15.2111L180.338 15.318Z" fill="#E6ACC2"/>
<path d="M200.982 66.5726C204.354 67.0499 207.778 67.0574 211.089 67.9672C214.401 68.8771 217.718 70.9006 219.319 74.2466C220.785 77.3242 220.566 81.0033 219.676 84.2375C219.132 86.2262 218.179 88.3119 216.381 88.9607C214.097 89.7711 211.733 87.8993 209.661 86.4102C202.403 81.1898 193.032 78.9649 187.376 71.1765C186.541 70.0432 185.837 68.8199 185.276 67.5297C184.091 64.7529 183.508 61.4467 183.416 58.4512C188.827 63.5473 193.77 65.5559 200.982 66.5726Z" fill="#D76999"/>
<path d="M149.824 11.9324C150.096 9.32468 152.318 -1.05648 156.632 0.641398C157.809 1.10378 158.562 2.24481 159.148 3.3759C162.787 10.3364 163.582 19.3379 162.862 27.0418C162.612 29.6097 162.281 32.3989 160.443 34.2136C159.749 34.8997 158.794 35.4143 157.827 35.285C157.078 35.1831 156.433 34.7158 155.832 34.241C149.096 28.7894 148.981 20.0042 149.824 11.9324Z" fill="#FEFFFE"/>
<path d="M156.058 26.4127C155.976 26.4127 155.894 26.3978 155.809 26.3854C151.849 25.7937 153.096 17.4013 153.176 14.7588C153.233 12.8819 153.442 7.53471 156.542 7.79822C158.006 7.925 158.575 10.0505 158.924 11.1815C159.991 14.6618 160.103 18.331 160.595 21.8884C160.729 22.8653 160.844 23.9616 160.228 24.7397C159.854 25.2195 159.275 25.4855 158.717 25.7341C157.859 26.102 156.969 26.4699 156.058 26.4127Z" fill="url(#paint11_linear)"/>
<path d="M86.6578 70.473C86.9562 70.6921 87.2891 70.8601 87.6429 70.9702C89.1641 71.4474 90.5632 70.8782 91.9846 70.5699C91.214 71.6687 90.4883 72.8346 90.4883 74.2217C90.4659 75.6834 91.3811 77.2173 92.8076 77.5603C93.9597 77.8387 95.2166 77.2819 95.9498 76.3522C99.3988 71.972 94.3039 66.8435 90.4883 65.1954C89.9545 64.9219 89.3567 64.7965 88.7576 64.8324C88.3919 64.8962 88.039 65.0188 87.7127 65.1954C86.8025 65.6329 85.8698 66.2047 85.4683 67.1319C84.9695 68.3301 85.6054 69.6924 86.6578 70.473Z" fill="#FFC6A4"/>
<defs>
<linearGradient id="paint0_linear" x1="45.9038" y1="89.4827" x2="45.9038" y2="83.3301" gradientUnits="userSpaceOnUse">
<stop stop-color="#FFBD5A"/>
<stop offset="1" stop-color="#F4DC62"/>
</linearGradient>
<linearGradient id="paint1_linear" x1="990.578" y1="2223.11" x2="990.578" y2="2070.8" gradientUnits="userSpaceOnUse">
<stop stop-color="#FFBD5A"/>
<stop offset="1" stop-color="#F4DC62"/>
</linearGradient>
<linearGradient id="paint2_linear" x1="408.5" y1="2339.77" x2="408.5" y2="2187.39" gradientUnits="userSpaceOnUse">
<stop stop-color="#FFBD5A"/>
<stop offset="1" stop-color="#F4DC62"/>
</linearGradient>
<linearGradient id="paint3_linear" x1="297.757" y1="2568.38" x2="297.757" y2="2352.81" gradientUnits="userSpaceOnUse">
<stop stop-color="#FFBD5A"/>
<stop offset="1" stop-color="#F4DC62"/>
</linearGradient>
<linearGradient id="paint4_linear" x1="1619.32" y1="2545.3" x2="1619.32" y2="2329.73" gradientUnits="userSpaceOnUse">
<stop stop-color="#FFBD5A"/>
<stop offset="1" stop-color="#F4DC62"/>
</linearGradient>
<linearGradient id="paint5_linear" x1="1343.62" y1="2637.68" x2="1343.62" y2="2421.95" gradientUnits="userSpaceOnUse">
<stop stop-color="#FFBD5A"/>
<stop offset="1" stop-color="#F4DC62"/>
</linearGradient>
<linearGradient id="paint6_linear" x1="701.621" y1="2617.88" x2="701.621" y2="2402.27" gradientUnits="userSpaceOnUse">
<stop stop-color="#FFBD5A"/>
<stop offset="1" stop-color="#F4DC62"/>
</linearGradient>
<linearGradient id="paint7_linear" x1="153.868" y1="20.8672" x2="138.288" y2="32.2518" gradientUnits="userSpaceOnUse">
<stop stop-color="#F3B0BB"/>
<stop offset="0.66" stop-color="#E596A6"/>
<stop offset="1" stop-color="#E0778E"/>
</linearGradient>
<linearGradient id="paint8_linear" x1="144.031" y1="15.1236" x2="131.14" y2="24.5436" gradientUnits="userSpaceOnUse">
<stop offset="0.01" stop-color="#FFE55A"/>
<stop offset="1" stop-color="#FFB95A"/>
</linearGradient>
<linearGradient id="paint9_linear" x1="132.585" y1="10.5615" x2="124.364" y2="16.569" gradientUnits="userSpaceOnUse">
<stop stop-color="#EAC2D9"/>
<stop offset="1" stop-color="#9A78D1"/>
</linearGradient>
<linearGradient id="paint10_linear" x1="123.389" y1="6.02007" x2="118.403" y2="9.66374" gradientUnits="userSpaceOnUse">
<stop stop-color="#81FCD0"/>
<stop offset="0.28" stop-color="#72F1DE"/>
<stop offset="0.56" stop-color="#68EAE8"/>
<stop offset="1" stop-color="#68C7E8"/>
</linearGradient>
<linearGradient id="paint11_linear" x1="10855.5" y1="-5.55883" x2="11263.3" y2="1281.1" gradientUnits="userSpaceOnUse">
<stop stop-color="#F3B0BB"/>
<stop offset="0.66" stop-color="#E596A6"/>
<stop offset="1" stop-color="#E0778E"/>
</linearGradient>
</defs>
</svg>
